<svg xmlns="http://www.w3.org/2000/svg" xmlns:xlink="http://www.w3.org/1999/xlink" width="504.5" height="339.406" viewBox="0 0 504.5 339.406">
  <defs>
    <clipPath id="clip-path">
      <path id="Trazado_818456" data-name="Trazado 818456" d="M17.313,80.174A69.236,69.236,0,1,0,86.55,10.939,69.237,69.237,0,0,0,17.313,80.174" transform="translate(-17.313 -10.939)" fill="#add3fd"/>
    </clipPath>
    <clipPath id="clip-path-2">
      <rect id="Rectángulo_382674" data-name="Rectángulo 382674" width="341.621" height="335.406" fill="none"/>
    </clipPath>
    <clipPath id="clip-path-3">
      <rect id="Rectángulo_382673" data-name="Rectángulo 382673" width="341.62" height="335.406" fill="none"/>
    </clipPath>
    <clipPath id="clip-path-4">
      <rect id="Rectángulo_382668" data-name="Rectángulo 382668" width="172.112" height="44.597" fill="none"/>
    </clipPath>
    <clipPath id="clip-path-5">
      <rect id="Rectángulo_382670" data-name="Rectángulo 382670" width="121.494" height="34.775" fill="none"/>
    </clipPath>
    <clipPath id="clip-path-6">
      <rect id="Rectángulo_382671" data-name="Rectángulo 382671" width="141.172" height="141.173" fill="none"/>
    </clipPath>
  </defs>
  <g id="Grupo_1073438" data-name="Grupo 1073438" transform="translate(-915.5 -5857)">
    <g id="Grupo_1073410" data-name="Grupo 1073410" transform="translate(915 5861.908)">
      <g id="Grupo_1073235" data-name="Grupo 1073235" transform="translate(0 0)">
        <rect id="Rectángulo_382613" data-name="Rectángulo 382613" width="441" height="339" rx="11" transform="translate(0.5 -4.907)" fill="#1682fb"/>
        <g id="Grupo_1073236" data-name="Grupo 1073236" transform="translate(366.528 0.001)">
          <g id="Grupo_1071496" data-name="Grupo 1071496" clip-path="url(#clip-path)">
            <path id="Trazado_818450" data-name="Trazado 818450" d="M153.147,33.779,127.133,7.764,102.642,32.257,78.011,7.626,52.273,33.364,26.813,7.9l-23,23L0,27.09,26.813.277l25.46,25.459L78.011,0l24.631,24.629L127.133.138l26.015,26.015L177.531,1.769l3.815,3.812Z" transform="translate(-27.101 -17.123)" fill="#add3fd"/>
            <path id="Trazado_818451" data-name="Trazado 818451" d="M153.147,50.574,127.133,24.561l-24.491,24.49L78.011,24.422,52.273,50.159,26.813,24.7l-23,23L0,43.885,26.813,17.072l25.46,25.46L78.011,16.8l24.631,24.631,24.491-24.491,26.015,26.013,24.383-24.383,3.815,3.812Z" transform="translate(-27.101 -7.628)" fill="#add3fd"/>
            <path id="Trazado_818452" data-name="Trazado 818452" d="M153.147,67.369,127.133,41.356,102.642,65.848,78.011,41.218,52.273,66.954l-25.46-25.46-23,23L0,60.68,26.813,33.867l25.46,25.46L78.011,33.59l24.631,24.631L127.133,33.73l26.015,26.013,24.383-24.383,3.815,3.813Z" transform="translate(-27.101 1.867)" fill="#add3fd"/>
            <path id="Trazado_818453" data-name="Trazado 818453" d="M153.147,84.165,127.133,58.151,102.642,82.642,78.011,58.013,52.273,83.75,26.813,58.288l-23,23L0,77.476,26.813,50.664l25.46,25.46L78.011,50.387l24.631,24.631,24.491-24.493,26.015,26.015,24.383-24.385,3.815,3.813Z" transform="translate(-27.101 11.363)" fill="#add3fd"/>
            <path id="Trazado_818454" data-name="Trazado 818454" d="M153.147,100.96,127.133,74.946,102.642,99.437,78.011,74.808,52.273,100.546l-25.46-25.46-23,23L0,94.273,26.813,67.459l25.46,25.46L78.011,67.182l24.631,24.631,24.491-24.491,26.015,26.015,24.383-24.385,3.815,3.813Z" transform="translate(-27.101 20.858)" fill="#add3fd"/>
            <path id="Trazado_818455" data-name="Trazado 818455" d="M153.147,117.756,127.133,91.743l-24.491,24.491L78.011,91.6,52.273,117.341,26.813,91.88l-23,23L0,111.067,26.813,84.254l25.46,25.46L78.011,83.977l24.631,24.631,24.491-24.491,26.015,26.013,24.383-24.383,3.815,3.813Z" transform="translate(-27.101 30.353)" fill="#add3fd"/>
          </g>
        </g>
      </g>
    </g>
    <g id="Grupo_1073437" data-name="Grupo 1073437" transform="translate(958.5 5861)">
      <g id="Grupo_1073436" data-name="Grupo 1073436" clip-path="url(#clip-path-2)">
        <g id="Grupo_1073435" data-name="Grupo 1073435" transform="translate(0.001)">
          <g id="Grupo_1073434" data-name="Grupo 1073434" clip-path="url(#clip-path-3)">
            <path id="Trazado_823454" data-name="Trazado 823454" d="M33.906,167.7A167.7,167.7,0,1,0,201.609,0a167.7,167.7,0,0,0-167.7,167.7" transform="translate(-33.906)" fill="#b3bad6"/>
            <path id="Trazado_823455" data-name="Trazado 823455" d="M141.962,918.537h68.976l132.286-10.663,21.84,10.663H388.5V713.993H346.151c-112.77,0-204.189,91.418-204.189,204.189Z" transform="translate(-72.897 -583.131)" fill="#b3baed"/>
            <g id="Grupo_1073427" data-name="Grupo 1073427" transform="translate(13.751 280.866)" opacity="0.5">
              <g id="Grupo_1073426" data-name="Grupo 1073426">
                <g id="Grupo_1073425" data-name="Grupo 1073425" clip-path="url(#clip-path-4)">
                  <rect id="Rectángulo_382667" data-name="Rectángulo 382667" width="172.111" height="44.597" transform="translate(0.001 0)" fill="#fff"/>
                </g>
              </g>
            </g>
            <path id="Trazado_823456" data-name="Trazado 823456" d="M904.41,1552.06h172.478V1507.1H904.41Zm172.111-.367H904.776v-44.231h171.745Z" transform="translate(-901.029 -1230.872)" fill="#273a89"/>
            <path id="Trazado_823457" data-name="Trazado 823457" d="M1289.538,1605.06h50.9a.183.183,0,1,0,0-.367h-50.9a.183.183,0,0,0,0,.367" transform="translate(-1235.315 -1310.582)" fill="#273a89"/>
            <path id="Trazado_823458" data-name="Trazado 823458" d="M1069.823,1605.06h29.169a.183.183,0,0,0,0-.367h-29.169a.183.183,0,1,0,0,.367" transform="translate(-953.6 -1310.582)" fill="#273a89"/>
            <path id="Trazado_823459" data-name="Trazado 823459" d="M1427.664,1653.452h25.583a.183.183,0,1,0,0-.367h-25.583a.183.183,0,1,0,0,.367" transform="translate(-1373.441 -1350.104)" fill="#273a89"/>
            <path id="Trazado_823460" data-name="Trazado 823460" d="M1069.822,1653.452h54.485a.183.183,0,0,0,0-.367h-54.485a.183.183,0,0,0,0,.367" transform="translate(-978.916 -1350.104)" fill="#273a89"/>
            <path id="Trazado_823461" data-name="Trazado 823461" d="M1069.823,1701.845h74.517a.183.183,0,1,0,0-.366h-74.517a.183.183,0,1,0,0,.366" transform="translate(-998.948 -1389.628)" fill="#273a89"/>
            <path id="Trazado_823462" data-name="Trazado 823462" d="M604.226,163.013H607.9a33.977,33.977,0,0,1,1.394-5.211l-3.178-1.835,6.214-10.763,3.185,1.839a34.387,34.387,0,0,1,3.812-3.812l-1.839-3.185,10.763-6.214,1.835,3.178a33.925,33.925,0,0,1,5.212-1.394v-3.672h12.428v3.672a33.929,33.929,0,0,1,5.212,1.394l1.835-3.178,10.763,6.214-1.839,3.185a34.384,34.384,0,0,1,3.812,3.812l3.185-1.839,6.214,10.763-3.178,1.835a33.942,33.942,0,0,1,1.394,5.211h3.672v12.428h-3.672a33.939,33.939,0,0,1-1.394,5.212l3.178,1.835-6.214,10.763-3.185-1.839a34.4,34.4,0,0,1-3.812,3.812l1.839,3.185-10.763,6.214h0l-1.835-3.178a33.931,33.931,0,0,1-5.212,1.394v3.672H635.3v-3.672a33.926,33.926,0,0,1-5.212-1.394l-1.835,3.178h0l-10.763-6.214,1.839-3.185a34.4,34.4,0,0,1-3.812-3.812l-3.185,1.839-6.214-10.763,3.178-1.835a33.974,33.974,0,0,1-1.394-5.212h-3.672Zm16.7,6.888a20.595,20.595,0,1,0,21.258-21.258A20.669,20.669,0,0,0,620.925,169.9" transform="translate(-447.916 -107.761)" fill="#fff"/>
            <path id="Trazado_823463" data-name="Trazado 823463" d="M684.817,242.124a27.371,27.371,0,0,0,4.1-54.433.183.183,0,0,0-.054.363,27,27,0,1,1-30.182,33.506.183.183,0,0,0-.355.092,27.363,27.363,0,0,0,26.493,20.473" transform="translate(-491.223 -153.289)" fill="#f2e6dc"/>
            <path id="Trazado_823464" data-name="Trazado 823464" d="M171.14,413.023s-96.7,45.993-158.835-35.4c0,0,36.326-37.344,65.66-49.28s57.127,5.349,93.175,84.683" transform="translate(168.225 -265.371)" fill="#363e44"/>
            <path id="Trazado_823465" data-name="Trazado 823465" d="M304.237,1464.634,269.822,1531.6H423.948l-4.17-47.926Z" transform="translate(-131.781 -1196.193)" fill="#fff"/>
            <path id="Trazado_823466" data-name="Trazado 823466" d="M781.637,743.628s-15.861-21.794-44.511,7.253S694.7,827.958,694.7,827.958l43.61,16.775Z" transform="translate(-567.342 -600.925)" fill="#fff"/>
            <path id="Trazado_823467" data-name="Trazado 823467" d="M311.993,787.732c-18.25-8.381-48.295-20.038-81.193-24.012L167.948,913.033,293.888,935.6l13.477-25.97,6.631,29.573,12.793,4.354,3.417-127.378a31.289,31.289,0,0,0-18.212-28.443" transform="translate(-19.367 -623.744)" fill="#1682fb"/>
            <path id="Trazado_823468" data-name="Trazado 823468" d="M380.1,805.481s-26.353-13.754-53.414-17.4l-1.824,51.395Z" transform="translate(-98.026 -643.637)" fill="#fff"/>
            <path id="Trazado_823469" data-name="Trazado 823469" d="M917.719,1086.877h67.9l-30.7-92.842h-67.9Z" transform="translate(-806.568 -811.846)" fill="#363e44"/>
            <path id="Trazado_823470" data-name="Trazado 823470" d="M1274.174,1297.121c-4.829,1.363-6.183,3.81-5.6,6.194s2.877,3.8,7.706,2.438,10.362-4.99,9.781-7.374-7.057-2.621-11.885-1.259" transform="translate(-1176.965 -1058.702)" fill="#e2a18d"/>
            <path id="Trazado_823471" data-name="Trazado 823471" d="M1269.928,1249.928c-5.6,1.579-7.166,4.416-6.492,7.179s3.335,4.405,8.931,2.826,12.01-5.783,11.336-8.546-8.179-3.038-13.776-1.459" transform="translate(-1173.671 -1020.051)" fill="#e2a18d"/>
            <path id="Trazado_823472" data-name="Trazado 823472" d="M1306.15,1183.224c-4.829,1.363-7.125-.055-7.706-2.438s.772-4.831,5.6-6.194,11.3-1.125,11.885,1.258-4.952,6.011-9.781,7.374" transform="translate(-1212.311 -958.63)" fill="#e2a18d"/>
            <path id="Trazado_823473" data-name="Trazado 823473" d="M1282.135,1219.863c-5.6,1.58-8.257-.063-8.931-2.826s.9-5.6,6.492-7.179,13.1-1.3,13.775,1.459-5.74,6.967-11.337,8.546" transform="translate(-1185.229 -987.325)" fill="#e2a18d"/>
            <path id="Trazado_823474" data-name="Trazado 823474" d="M116.072,950.744s2.773-7.995,11.517.214,25.99,27.7,37.544,25.07,33.374-69.946,69.34-52.349,7.464,73.788-8.694,92.569-42.928,36.157-73.085,32.722-53.718-57.169-57-63.892C89.8,973,116.072,950.744,116.072,950.744" transform="translate(72.399 -751.992)" fill="#fff"/>
            <path id="Trazado_823475" data-name="Trazado 823475" d="M422.564,1549.669a71.014,71.014,0,0,0,16.178-1.89,83.254,83.254,0,0,0,21.463-8.418.183.183,0,1,0-.178-.32c-14.61,8.128-30.213,11.527-45.124,9.829-8.671-.988-17.621-6.289-26.6-15.756a.183.183,0,1,0-.266.252c9.042,9.532,18.068,14.87,26.827,15.868a68,68,0,0,0,7.7.436" transform="translate(-189.79 -1252.074)" fill="#e6d0be"/>
            <path id="Trazado_823476" data-name="Trazado 823476" d="M887.043,916.017S866.7,882.38,852.962,886.936s4.235,5.851,3.368,10.661c0,0-8.84,1.969-6.94,7.352,0,0-4.07,3.321-3.8,5.984,0,0-8.718,7.084-4.4,10.673,3.681,3.057,5.175-3.123,9.167-2.406s5.417,16.75,13.49,17.247l5.381,12.1s19.162-21.339,17.813-32.529" transform="translate(-699.446 -724.03)" fill="#e2a18d"/>
            <path id="Trazado_823477" data-name="Trazado 823477" d="M1025.9,1016.193a.183.183,0,0,0,.129-.313c-2.018-2.007-6.205-.966-6.382-.92a.183.183,0,0,0,.091.355c.042-.011,4.163-1.034,6.033.825a.182.182,0,0,0,.129.053" transform="translate(-871.322 -828.682)" fill="#363e44"/>
            <path id="Trazado_823478" data-name="Trazado 823478" d="M1006.65,982.286a.183.183,0,0,0,.118-.323c-.093-.078-2.314-1.9-5.937-.379a.183.183,0,0,0,.142.338c3.407-1.43,5.538.3,5.559.321a.183.183,0,0,0,.118.043" transform="translate(-848.627 -801.184)" fill="#363e44"/>
            <path id="Trazado_823479" data-name="Trazado 823479" d="M840.616,1023.609l5.606,8.757s-9.083,22.955-21.513,30.667L820.174,1054s14.19-20.717,20.442-30.386" transform="translate(-654.924 -836)" fill="#fff"/>
            <path id="Trazado_823480" data-name="Trazado 823480" d="M843.637,1141.6a.176.176,0,0,0,.068-.013c5.442-2.17,9.5-7.338,11.946-11.292a48.752,48.752,0,0,0,4.041-8.129.183.183,0,0,0-.345-.124c-.054.151-5.53,15.119-15.777,19.2a.183.183,0,0,0,.068.353" transform="translate(-672.672 -916.296)" fill="#e6d0be"/>
            <path id="Trazado_823481" data-name="Trazado 823481" d="M507.651,1246.714a3.466,3.466,0,0,0,.84-.1,2.452,2.452,0,0,0,1.626-1.2c.791-1.468-.17-3.209-.813-4.117a15.058,15.058,0,0,0-6.711-5.25.183.183,0,0,0-.134.341,14.691,14.691,0,0,1,6.546,5.121c.594.838,1.487,2.437.789,3.731a2.117,2.117,0,0,1-1.393,1.022,3.362,3.362,0,0,1-2.6-.451,8.773,8.773,0,0,1-2.691-3.821.183.183,0,1,0-.333.153,9.048,9.048,0,0,0,2.822,3.974,3.756,3.756,0,0,0,2.047.6" transform="translate(-260.867 -1009.488)" fill="#e6d0be"/>
            <path id="Trazado_823482" data-name="Trazado 823482" d="M571.227,1255.19a.184.184,0,0,0,.169-.112l3.445-8.078a.183.183,0,1,0-.337-.144l-3.445,8.078a.184.184,0,0,0,.169.255" transform="translate(-337.897 -1018.239)" fill="#e6d0be"/>
            <path id="Trazado_823483" data-name="Trazado 823483" d="M841.281,1063.518a1.917,1.917,0,1,0-1.918-1.917,1.92,1.92,0,0,0,1.918,1.917m0-3.468a1.551,1.551,0,1,1-1.551,1.551,1.553,1.553,0,0,1,1.551-1.551" transform="translate(-655.418 -865.462)" fill="#e6d0be"/>
            <path id="Trazado_823484" data-name="Trazado 823484" d="M944.838,1202.077a.184.184,0,0,0,.164-.266l-2.881-5.742a.183.183,0,1,0-.328.164l2.881,5.742a.183.183,0,0,0,.164.1" transform="translate(-776.011 -976.768)" fill="#e6d0be"/>
            <path id="Trazado_823485" data-name="Trazado 823485" d="M403.32,864.844a3.6,3.6,0,0,0,1.957-.641,6.825,6.825,0,0,0,2.735-6.693,2.927,2.927,0,0,0-4.766-1.948,6.407,6.407,0,0,0-2.327,2.955c-1.074,2.628-.449,5.379,1.394,6.132a2.647,2.647,0,0,0,1.006.2m-.937-.365h0Zm2.821-9.191a2.28,2.28,0,0,1,.867.168,2.816,2.816,0,0,1,1.583,2.133,6.462,6.462,0,0,1-2.578,6.308,2.816,2.816,0,0,1-2.624.413c-1.656-.677-2.191-3.213-1.193-5.654a6.04,6.04,0,0,1,2.188-2.786,3.243,3.243,0,0,1,1.757-.581" transform="translate(-139.898 -698.23)" fill="#273a89"/>
            <path id="Trazado_823486" data-name="Trazado 823486" d="M420.381,896.985a6.335,6.335,0,0,0,3.676-1.316,6.41,6.41,0,0,0,2.289-2.984,2.927,2.927,0,0,0-3.064-4.137,6.825,6.825,0,0,0-5.811,4.3,2.907,2.907,0,0,0,2.91,4.135m3.06-8.074a2.76,2.76,0,0,1,2.311,1.01,2.816,2.816,0,0,1,.247,2.645,6.041,6.041,0,0,1-2.16,2.808c-2.119,1.569-4.709,1.676-5.774.239a2.815,2.815,0,0,1-.247-2.645,6.461,6.461,0,0,1,5.476-4.055l.146,0" transform="translate(-161.428 -725.69)" fill="#273a89"/>
            <path id="Trazado_823487" data-name="Trazado 823487" d="M456.178,917.585a7.1,7.1,0,0,0,1.8-.237c2.746-.721,4.569-2.874,4.063-4.8a3.167,3.167,0,0,0-2.137-2.1,6.409,6.409,0,0,0-3.76-.084c-2.746.721-4.568,2.874-4.063,4.8.393,1.5,2.078,2.421,4.1,2.421m1.779-7.094a5.363,5.363,0,0,1,1.821.3,2.815,2.815,0,0,1,1.907,1.849c.454,1.73-1.251,3.682-3.8,4.352s-4.995-.193-5.449-1.923,1.251-3.682,3.8-4.352a6.8,6.8,0,0,1,1.721-.228m-5.7,4.626h0Z" transform="translate(-203.347 -743.315)" fill="#273a89"/>
            <path id="Trazado_823488" data-name="Trazado 823488" d="M498.766,915.58a5.79,5.79,0,0,0,2.061-.36,3.168,3.168,0,0,0,2.1-2.139c.47-1.934-1.391-4.054-4.15-4.725a6.407,6.407,0,0,0-3.758.153,3.168,3.168,0,0,0-2.1,2.139c-.47,1.934,1.391,4.054,4.15,4.724a7.185,7.185,0,0,0,1.7.208m-1.687-7.065a6.836,6.836,0,0,1,1.61.2c2.562.623,4.3,2.544,3.88,4.282a2.814,2.814,0,0,1-1.873,1.883,6.039,6.039,0,0,1-3.54.139c-2.562-.623-4.3-2.544-3.88-4.282a2.815,2.815,0,0,1,1.873-1.883,5.412,5.412,0,0,1,1.93-.336" transform="translate(-251.708 -741.701)" fill="#273a89"/>
            <path id="Trazado_823489" data-name="Trazado 823489" d="M539.307,897.688a2.92,2.92,0,0,0,2.915-4.193,6.4,6.4,0,0,0-2.343-2.942c-2.312-1.648-5.133-1.669-6.288-.048s-.214,4.281,2.1,5.928a6.409,6.409,0,0,0,3.546,1.254h.073m-3.046-8.024a6.454,6.454,0,0,1,5.617,3.956,2.565,2.565,0,0,1-2.637,3.7,6.039,6.039,0,0,1-3.339-1.186c-2.147-1.53-3.05-3.96-2.012-5.417a2.8,2.8,0,0,1,2.371-1.054" transform="translate(-298.562 -726.31)" fill="#273a89"/>
            <path id="Trazado_823490" data-name="Trazado 823490" d="M567.224,859.665a2.585,2.585,0,0,0,.737-.106,3.169,3.169,0,0,0,2.031-2.2,6.823,6.823,0,0,0-2.057-6.931A2.927,2.927,0,0,0,563,851.889a6.409,6.409,0,0,0,.035,3.761c.705,2.377,2.48,4.015,4.189,4.015m-1.447-9.719a3.112,3.112,0,0,1,1.928.764,6.461,6.461,0,0,1,1.939,6.532,2.815,2.815,0,0,1-1.787,1.965c-1.717.509-3.72-1.134-4.47-3.662a6.041,6.041,0,0,1-.038-3.543,2.816,2.816,0,0,1,1.787-1.965,2.258,2.258,0,0,1,.642-.092" transform="translate(-331.775 -693.866)" fill="#273a89"/>
            <path id="Trazado_823491" data-name="Trazado 823491" d="M572,818.187a3.249,3.249,0,0,0,2.463-1.3,6.824,6.824,0,0,0,.665-7.2,3.168,3.168,0,0,0-2.422-1.764c-1.978-.182-3.808,1.968-4.069,4.8s1.139,5.276,3.122,5.459q.12.011.24.011m.673-9.9a2.815,2.815,0,0,1,2.136,1.578,6.461,6.461,0,0,1-.626,6.785,2.816,2.816,0,0,1-2.389,1.16c-1.781-.164-3.033-2.434-2.79-5.06s1.889-4.628,3.67-4.464" transform="translate(-338.459 -659.835)" fill="#273a89"/>
            <path id="Trazado_823492" data-name="Trazado 823492" d="M305.309,859.286a.184.184,0,0,0,.1-.028l63.839-40.4a.183.183,0,0,0-.2-.31L305.5,858.765l1.593-59.057a.183.183,0,0,0-.367-.01l-1.6,59.4a.183.183,0,0,0,.183.188" transform="translate(-83.634 -652.982)" fill="#fff"/>
            <path id="Trazado_823493" data-name="Trazado 823493" d="M0,243.892s8.267-43.825,45.266-28.318c26.026,10.908,9.319,35.4-5.845,38.039C23.781,256.336,0,243.892,0,243.892" transform="translate(282.768 -173.35)" fill="#363e44"/>
            <path id="Trazado_823494" data-name="Trazado 823494" d="M146.018,241.282l.6-.076c-.027-.217-2.6-21.765,7.732-29.122,5.41-3.851,13.435-3.2,23.849,1.948l.268-.543c-10.629-5.25-18.862-5.889-24.469-1.9-5.571,3.966-7.442,11.841-8.031,17.75a60.174,60.174,0,0,0,.05,11.94" transform="translate(136.449 -170.703)" fill="#363e44"/>
            <path id="Trazado_823495" data-name="Trazado 823495" d="M146.251,568.355h.027a.3.3,0,0,0,.275-.328c-1.651-18.965-7.222-32.6-11.6-40.7-4.756-8.79-9.19-13.154-9.234-13.2a.3.3,0,0,0-.422.434c.043.043,4.425,4.36,9.138,13.078,4.349,8.046,9.879,21.593,11.52,40.439a.3.3,0,0,0,.3.276" transform="translate(172.119 -419.827)" fill="#2d353a"/>
            <path id="Trazado_823496" data-name="Trazado 823496" d="M40.736,325.031a26.251,26.251,0,0,0,15.95-5.136c7.367-5.423,10.128-13.173,10.122-13.588a.3.3,0,0,0-.3-.3h0a.3.3,0,0,0-.3.292c-.1.761-3.365,9.052-11.37,14.129-7.219,4.578-16.025,5.217-26.173,1.9a.3.3,0,0,0-.188.575,39.558,39.558,0,0,0,12.264,2.126" transform="translate(269.632 -249.923)" fill="#2d353a"/>
            <path id="Trazado_823497" data-name="Trazado 823497" d="M337.246,448.465c6.72,8.6,35.7-.662,35.7-.662l22.371-24.714a27.794,27.794,0,0,0-53.271-15.881s-11.649,32.5-4.8,41.257" transform="translate(-116.283 -316.354)" fill="#e2a18d"/>
            <path id="Trazado_823498" data-name="Trazado 823498" d="M436.157,668.967l1.436-37.653,20.378.905-1.436,37.653a10.2,10.2,0,1,1-20.378-.905" transform="translate(-196.289 -515.605)" fill="#e2a18d"/>
            <path id="Trazado_823499" data-name="Trazado 823499" d="M636.822,538.9s-9.8,5.6-10.023,7.785c-.261,2.608,7.612,6.594,7.612,6.594s2.206-14.419,2.411-14.379" transform="translate(-410.082 -440.13)" fill="#e2a18d"/>
            <path id="Trazado_823500" data-name="Trazado 823500" d="M506.075,555.107a24.127,24.127,0,0,0-6.8-8.081c-.963-.7-4.787,8.331-3.553,8.564a24.181,24.181,0,0,0,10.356-.483" transform="translate(-255.266 -446.734)" fill="#fff"/>
            <path id="Trazado_823501" data-name="Trazado 823501" d="M542.289,539.692c-6.649-2.925-10-9.938-10-9.938s7.432-2.27,14.081.655a16.99,16.99,0,0,1,3.183,1.857,9.485,9.485,0,0,1-3.536,8.563,17.115,17.115,0,0,1-3.73-1.138" transform="translate(-305.562 -431.974)" fill="#363e44"/>
            <path id="Trazado_823502" data-name="Trazado 823502" d="M586.113,638.633a4.161,4.161,0,0,0,1.174-.169,4.237,4.237,0,0,0,2.954-3.324.3.3,0,0,0-.6-.1,3.59,3.59,0,0,1-6.275,1.729.3.3,0,0,0-.459.394,4.229,4.229,0,0,0,3.2,1.473" transform="translate(-355.448 -518.441)" fill="#363e44"/>
            <path id="Trazado_823503" data-name="Trazado 823503" d="M462.91,722.885h.019c10.04-.618,21.36-4.2,21.474-4.241a.3.3,0,0,0-.184-.577c-.112.036-11.364,3.6-21.327,4.213a.3.3,0,0,0,.018.6" transform="translate(-227.78 -586.446)" fill="#363e44"/>
            <path id="Trazado_823504" data-name="Trazado 823504" d="M339.145,416.262c7.936-3.8,10.375-22.514,5.5-34.5-6.286-15.451-24.519-24.573-39.251-23.33-3.621.305-11.9,2.076-14.645,7.238-2.14,4.019,1.938,12.37,8.847,14.771,9.714,3.375,23.327,1.128,18.3,12.2-15.246,33.541,12.534,27.8,21.255,23.622" transform="translate(-58.718 -292.647)" fill="#363e44"/>
            <g id="Grupo_1073430" data-name="Grupo 1073430" transform="translate(16.548 176.421)" opacity="0.5">
              <g id="Grupo_1073429" data-name="Grupo 1073429">
                <g id="Grupo_1073428" data-name="Grupo 1073428" clip-path="url(#clip-path-5)">
                  <rect id="Rectángulo_382669" data-name="Rectángulo 382669" width="121.493" height="34.775" transform="translate(0)" fill="#fff"/>
                </g>
              </g>
            </g>
            <path id="Trazado_823505" data-name="Trazado 823505" d="M1129.6,976.848h121.86V941.706H1129.6Zm121.493-.367H1129.968V942.073h121.127Z" transform="translate(-1116.876 -769.108)" fill="#fff"/>
            <path id="Trazado_823506" data-name="Trazado 823506" d="M1183.976,1014.819l-4.431.561,3.141,3.176-.836,4.387,3.991-2.005,3.915,2.151-.674-4.415,3.255-3.058-4.408-.724-1.9-4.041Z" transform="translate(-1066.905 -825.58)" fill="#273a89"/>
            <path id="Trazado_823507" data-name="Trazado 823507" d="M1284.761,1014.819l-4.431.561,3.141,3.176-.836,4.387,3.991-2.005,3.914,2.151-.674-4.415,3.255-3.058-4.408-.724-1.9-4.041Z" transform="translate(-1186.162 -825.58)" fill="#273a89"/>
            <path id="Trazado_823508" data-name="Trazado 823508" d="M1385.546,1014.819l-4.431.561,3.141,3.176-.836,4.387,3.991-2.005,3.914,2.151-.674-4.415,3.255-3.058-4.408-.724-1.9-4.041Z" transform="translate(-1305.419 -825.58)" fill="#fff"/>
            <path id="Trazado_823509" data-name="Trazado 823509" d="M1486.329,1014.819l-4.431.561,3.141,3.176-.836,4.387,3.991-2.005,3.915,2.151-.674-4.415,3.255-3.058-4.408-.724-1.9-4.041Z" transform="translate(-1424.675 -825.58)" fill="#fff"/>
            <path id="Trazado_823510" data-name="Trazado 823510" d="M1587.115,1014.819l-4.431.561,3.141,3.176-.836,4.387,3.991-2.005,3.914,2.151-.674-4.415,3.255-3.058-4.408-.724-1.9-4.041Z" transform="translate(-1543.932 -825.58)" fill="#fff"/>
            <path id="Trazado_823511" data-name="Trazado 823511" d="M1648.285,586.691l-14.132,1.789,10.016,10.129L1641.5,612.6l12.729-6.4,12.485,6.86-2.149-14.082,10.382-9.754-14.057-2.308-6.068-12.888Z" transform="translate(-1632.839 -468.824)" fill="#273a89"/>
            <path id="Trazado_823512" data-name="Trazado 823512" d="M889.449,207.945a75.69,75.69,0,1,0-29.555-5.967,75.454,75.454,0,0,0,29.555,5.967m0-151.49a75.562,75.562,0,1,1-75.562,75.562,75.647,75.647,0,0,1,75.562-75.562" transform="translate(-772.861 -45.809)" fill="#fff"/>
            <g id="Grupo_1073433" data-name="Grupo 1073433" transform="translate(46.003 15.621)" opacity="0.5">
              <g id="Grupo_1073432" data-name="Grupo 1073432">
                <g id="Grupo_1073431" data-name="Grupo 1073431" clip-path="url(#clip-path-6)">
                  <path id="Trazado_823513" data-name="Trazado 823513" d="M842.667,155.821a70.586,70.586,0,1,0,70.586-70.586,70.586,70.586,0,0,0-70.586,70.586" transform="translate(-842.667 -85.234)" fill="#fff"/>
                </g>
              </g>
            </g>
            <path id="Trazado_823514" data-name="Trazado 823514" d="M949.761,588.566l62.643,11.495a70.6,70.6,0,0,1-124.651-.01Z" transform="translate(-833.493 -480.693)" fill="#1682fb"/>
            <rect id="Rectángulo_382672" data-name="Rectángulo 382672" width="44.729" height="34.932" transform="matrix(-0.995, -0.102, 0.102, -0.995, 137.373, 78.523)" fill="#363e44"/>
            <path id="Trazado_823515" data-name="Trazado 823515" d="M1168.728,521.538h0c-7.476-.772-13.346-7.945-13.673-16.707L1154.04,477.6l29.621-1.116,1,27.264c.38,10.379-7.077,18.707-15.931,17.793" transform="translate(-1054.568 -389.151)" fill="#bc8271"/>
            <path id="Trazado_823516" data-name="Trazado 823516" d="M1153.741,292.955c-.691,12.37-8.214,31.587-24.183,30.695s-21.3-20.828-20.613-33.2,11.35-18.588,23.72-17.9,21.766,8.03,21.075,20.4" transform="translate(-1015.396 -222.558)" fill="#bc8271"/>
            <path id="Trazado_823517" data-name="Trazado 823517" d="M1336.639,368.888c1.857,4.91.71,9.894-2.563,11.133s-7.433-1.738-9.291-6.648-.71-9.894,2.563-11.133,7.433,1.738,9.291,6.648" transform="translate(-1238.554 -295.619)" fill="#bc8271"/>
            <path id="Trazado_823518" data-name="Trazado 823518" d="M1069.444,383.47c-2.393,4.673-1.808,9.754,1.307,11.349s7.58-.9,9.973-5.572,1.808-9.754-1.307-11.349-7.58.9-9.973,5.572" transform="translate(-936.316 -308.242)" fill="#bc8271"/>
            <path id="Trazado_823519" data-name="Trazado 823519" d="M1085.11,408.75a.183.183,0,0,0,.089-.023,6.756,6.756,0,0,0,2.611-2.84c1.332-2.6.981-5.449-.782-6.352a2.511,2.511,0,0,0-.564-.208.183.183,0,1,0-.085.357,2.153,2.153,0,0,1,.482.177c1.583.811,1.863,3.439.623,5.859a6.392,6.392,0,0,1-2.463,2.687.183.183,0,0,0,.089.343" transform="translate(-945.845 -326.133)" fill="#363e44"/>
            <path id="Trazado_823520" data-name="Trazado 823520" d="M1367.178,393.756a.183.183,0,0,0,.107-.332,6.394,6.394,0,0,1-2.149-2.944c-.962-2.542-.391-5.123,1.272-5.753a2.143,2.143,0,0,1,.5-.123.183.183,0,1,0-.045-.364,2.509,2.509,0,0,0-.583.144c-1.853.7-2.519,3.494-1.486,6.225a6.761,6.761,0,0,0,2.278,3.113.182.182,0,0,0,.106.034" transform="translate(-1275.794 -313.815)" fill="#363e44"/>
            <path id="Trazado_823521" data-name="Trazado 823521" d="M1109.412,406.857a.183.183,0,0,0,.172-.121,46.953,46.953,0,0,0,2.483-10.386.183.183,0,0,0-.364-.043,46.6,46.6,0,0,1-2.463,10.3.183.183,0,0,0,.172.246" transform="translate(-973.75 -323.539)" fill="#363e44"/>
            <path id="Trazado_823522" data-name="Trazado 823522" d="M1345.81,390.507a.183.183,0,0,0,.177-.231,46.569,46.569,0,0,1-1.6-12.627.183.183,0,0,0-.18-.186h0a.184.184,0,0,0-.183.18,46.939,46.939,0,0,0,1.613,12.73.183.183,0,0,0,.177.135" transform="translate(-1250.706 -308.28)" fill="#363e44"/>
            <path id="Trazado_823523" data-name="Trazado 823523" d="M1174.664,515.345c5.682,0,10.441-3.491,14-6.6a.183.183,0,1,0-.241-.276c-3.7,3.232-8.721,6.888-14.7,6.473s-10.377-4.482-13.913-8.405a.183.183,0,1,0-.272.245c3.375,3.745,8.035,8.1,14.16,8.526.324.023.645.034.963.034" transform="translate(-1059.619 -413.651)" fill="#363e44"/>
            <path id="Trazado_823524" data-name="Trazado 823524" d="M1222.43,423.855a.182.182,0,0,0,.078-.017c1.129-.527,1.78-1.169,1.937-1.909a2.514,2.514,0,0,0-.437-1.739,7.059,7.059,0,0,1-.637-1.54,5.989,5.989,0,0,1,.013-2.955.183.183,0,1,0-.356-.087,6.347,6.347,0,0,0-.011,3.134,7.355,7.355,0,0,0,.666,1.616,2.186,2.186,0,0,1,.4,1.494c-.131.622-.714,1.178-1.733,1.653a.183.183,0,0,0,.078.349" transform="translate(-1106.876 -339.32)" fill="#363e44"/>
            <path id="Trazado_823525" data-name="Trazado 823525" d="M1243.825,470.131q.083,0,.165,0a.183.183,0,1,0-.018-.366,3.72,3.72,0,0,1-3.045-1.5,3.326,3.326,0,0,1-.687-1.94.183.183,0,0,0-.183-.182h0a.183.183,0,0,0-.182.185,3.691,3.691,0,0,0,.76,2.157,4.121,4.121,0,0,0,3.191,1.651" transform="translate(-1129.791 -380.703)" fill="#363e44"/>
            <path id="Trazado_823526" data-name="Trazado 823526" d="M1073.829,231.525a6.606,6.606,0,1,0,3.823-8.524,6.606,6.606,0,0,0-3.823,8.524" transform="translate(-941.723 -181.774)" fill="#363e44"/>
            <path id="Trazado_823527" data-name="Trazado 823527" d="M1286.7,214.925a8.065,8.065,0,1,0,4.668-10.407,8.065,8.065,0,0,0-4.668,10.407" transform="translate(-1196.413 -166.601)" fill="#363e44"/>
            <path id="Trazado_823528" data-name="Trazado 823528" d="M1084.631,180.788a8.065,8.065,0,1,0,4.667-10.407,8.065,8.065,0,0,0-4.667,10.407" transform="translate(-957.312 -138.72)" fill="#363e44"/>
            <path id="Trazado_823529" data-name="Trazado 823529" d="M1267.484,184.208a5.084,5.084,0,1,0,2.942-6.561,5.084,5.084,0,0,0-2.942,6.561" transform="translate(-1167.946 -144.815)" fill="#363e44"/>
            <path id="Trazado_823530" data-name="Trazado 823530" d="M1196.19,176.2a8.065,8.065,0,1,0,4.667-10.407,8.065,8.065,0,0,0-4.667,10.407" transform="translate(-1089.318 -134.976)" fill="#363e44"/>
            <path id="Trazado_823531" data-name="Trazado 823531" d="M1166.408,240.687a8.065,8.065,0,1,0,4.667-10.407,8.065,8.065,0,0,0-4.667,10.407" transform="translate(-1054.077 -187.64)" fill="#363e44"/>
            <path id="Trazado_823532" data-name="Trazado 823532" d="M1137.8,157.891a8.065,8.065,0,1,0,4.667-10.407,8.065,8.065,0,0,0-4.667,10.407" transform="translate(-1020.222 -120.02)" fill="#363e44"/>
            <path id="Trazado_823533" data-name="Trazado 823533" d="M1132.512,286.765a5.084,5.084,0,1,0,2.942-6.561,5.084,5.084,0,0,0-2.942,6.561" transform="translate(-1008.236 -228.575)" fill="#363e44"/>
            <path id="Trazado_823534" data-name="Trazado 823534" d="M1258.8,372.5h.061c.022.128.094.294.226.3a3.828,3.828,0,0,1,.283.718c.163.375.735.1.572-.277-.11-.252.713.279,1.078.453,1.165.556,2.351,1.059,3.555,1.526.561.218,1.123.44,1.692.638a15.107,15.107,0,0,0,2.083.7,15.743,15.743,0,0,1,2.213,2.981,16.216,16.216,0,0,1-5.243.748c-.005-.04-.011-.079-.015-.119-.037-.395-6.612-2.5-6.816-2.218a16.187,16.187,0,0,1-4.126-4.7,16.083,16.083,0,0,1,4.437-.747" transform="translate(-1158.85 -304.226)" fill="#fff"/>
            <path id="Trazado_823535" data-name="Trazado 823535" d="M1272.22,373.249a12.934,12.934,0,0,1,4.671,3.285,5.249,5.249,0,0,1-2.937,3.736,12.132,12.132,0,0,1-4.16-.776,11.54,11.54,0,0,1-2.718-1.533,5.271,5.271,0,0,1,.328-5.484,12.464,12.464,0,0,1,4.815.772" transform="translate(-1167.39 -304.205)" fill="#363e44"/>
            <path id="Trazado_823536" data-name="Trazado 823536" d="M1129.015,388.979h0l-.06-.011c-.042.123-.138.276-.27.261a3.818,3.818,0,0,0-.391.665c-.22.345-.741-.018-.522-.363.148-.232-.748.164-1.135.28-1.238.368-2.487.68-3.75.953-.588.128-1.178.26-1.771.366a15.1,15.1,0,0,1-2.167.368,15.759,15.759,0,0,0-2.651,2.6,16.209,16.209,0,0,0,5.062,1.556c.011-.038.023-.076.034-.115.1-.384,6.921-1.44,7.078-1.128a16.184,16.184,0,0,0,4.809-4,16.083,16.083,0,0,0-4.266-1.43" transform="translate(-996.258 -317.678)" fill="#fff"/>
            <path id="Trazado_823537" data-name="Trazado 823537" d="M1142.146,387.929a12.936,12.936,0,0,0-5.125,2.517,5.248,5.248,0,0,0,2.319,4.148,12.129,12.129,0,0,0,4.23-.118,11.532,11.532,0,0,0,2.924-1.09,5.271,5.271,0,0,0,.53-5.469,12.467,12.467,0,0,0-4.877.012" transform="translate(-1014.326 -316.627)" fill="#363e44"/>
            <path id="Trazado_823538" data-name="Trazado 823538" d="M1426.9,603.481a.183.183,0,0,0,.081-.348,79.077,79.077,0,0,1-42.013-88.981.183.183,0,1,0-.357-.084,79.647,79.647,0,0,0,42.208,89.393.182.182,0,0,0,.081.019" transform="translate(-1338.857 -419.734)" fill="#273a89"/>
            <path id="Trazado_823539" data-name="Trazado 823539" d="M1511.57,849.121a.183.183,0,0,0,.064-.355,78.848,78.848,0,0,1-40.793-34.985.183.183,0,1,0-.32.179,78.843,78.843,0,0,0,40.986,35.15.187.187,0,0,0,.064.011" transform="translate(-1439.648 -664.553)" fill="#273a89"/>
            <path id="Trazado_823540" data-name="Trazado 823540" d="M1537.638,223.423l-16.7,2.114,11.838,11.972-3.151,16.54,15.044-7.56,14.756,8.108-2.541-16.644,12.271-11.528-16.614-2.727-7.172-15.233Z" transform="translate(-1506.292 -170.256)" fill="#273a89"/>
            <path id="Trazado_823541" data-name="Trazado 823541" d="M1406.225,67.336l-10.8,1.367,7.652,7.738-2.037,10.691,9.724-4.886,9.538,5.241-1.642-10.758,7.932-7.452-10.739-1.763-4.636-9.846Z" transform="translate(-1340.732 -47.098)" fill="#273a89"/>
          </g>
        </g>
      </g>
    </g>
  </g>
</svg>
