<svg xmlns="http://www.w3.org/2000/svg" xmlns:xlink="http://www.w3.org/1999/xlink" width="609.762" height="389.417" viewBox="0 0 609.762 389.417">
  <defs>
    <clipPath id="clip-path">
      <rect id="Rectángulo_382963" data-name="Rectángulo 382963" width="491" height="389" rx="12" transform="translate(844 10451)" fill="#273a89"/>
    </clipPath>
    <clipPath id="clip-path-2">
      <rect id="Rectángulo_382951" data-name="Rectángulo 382951" width="307.581" height="249.03" fill="none"/>
    </clipPath>
    <clipPath id="clip-path-3">
      <rect id="Rectángulo_382952" data-name="Rectángulo 382952" width="202.561" height="224.765" fill="none"/>
    </clipPath>
    <clipPath id="clip-path-4">
      <rect id="Rectángulo_382949" data-name="Rectángulo 382949" width="271.762" height="370.417" fill="none"/>
    </clipPath>
  </defs>
  <g id="Grupo_1073734" data-name="Grupo 1073734" transform="translate(-810 -10451)">
    <rect id="Rectángulo_382871" data-name="Rectángulo 382871" width="491" height="389" rx="12" transform="translate(844 10451)" fill="#273a89"/>
    <g id="Enmascarar_grupo_157" data-name="Enmascarar grupo 157" clip-path="url(#clip-path)">
      <g id="Grupo_1073744" data-name="Grupo 1073744" transform="translate(-172.09 -78.551)">
        <path id="Trazado_824546" data-name="Trazado 824546" d="M90.283,0l83.292,83.292,78.415-78.42,78.861,78.861,82.4-82.4,81.518,81.517L568.413,9.207l12.209,12.209-85.848,85.848L413.257,25.751l-82.4,82.4L251.991,29.294l-78.415,78.415L90.283,24.418,12.214,102.487,0,90.283Z" transform="translate(987.2 10867.4)" fill="#1682fb"/>
        <path id="Trazado_824547" data-name="Trazado 824547" d="M90.283,16.8l83.292,83.287,78.415-78.41,78.861,78.856,82.4-82.4,81.518,81.517L568.413,26l12.209,12.214-85.848,85.848L413.257,42.541l-82.4,82.4L251.991,46.084,173.575,124.5,90.283,41.213,12.214,119.282,0,107.078Z" transform="translate(987.2 10766.43)" fill="#1682fb"/>
        <path id="Trazado_824548" data-name="Trazado 824548" d="M90.283,33.59l83.292,83.287,78.415-78.415,78.861,78.856,82.4-82.4,81.518,81.517,73.639-73.644,12.209,12.214-85.848,85.848L413.257,59.336l-82.4,82.4L251.991,62.88l-78.415,78.415L90.283,58.008,12.214,136.077,0,123.869Z" transform="translate(987.2 10665.46)" fill="#1682fb"/>
        <path id="Trazado_824549" data-name="Trazado 824549" d="M90.283,50.387l83.292,83.292,78.415-78.415,78.861,78.856,82.4-82.4,81.518,81.523,73.639-73.644L580.622,71.8,494.774,157.65,413.257,76.132l-82.4,82.4L251.991,79.676,173.575,158.1,90.283,74.8,12.214,152.879,0,140.67Z" transform="translate(987.2 10564.484)" fill="#1682fb"/>
        <path id="Trazado_824550" data-name="Trazado 824550" d="M90.283,67.182l83.292,83.292,78.415-78.415,78.861,78.856,82.4-82.4,81.518,81.517,73.639-73.644,12.209,12.209-85.848,85.853L413.257,92.928l-82.4,82.4L251.991,96.471l-78.415,78.415L90.283,91.594,12.214,169.669,0,157.46Z" transform="translate(987.2 10463.515)" fill="#1682fb"/>
        <path id="Trazado_824551" data-name="Trazado 824551" d="M90.283,83.977l83.292,83.287,78.415-78.415L330.852,167.7l82.4-82.4,81.518,81.517,73.639-73.644,12.209,12.214L494.774,191.24l-81.518-81.517-82.4,82.4-78.861-78.861-78.415,78.415L90.283,108.395,12.214,186.464,0,174.255Z" transform="translate(987.2 10362.544)" fill="#1682fb"/>
      </g>
    </g>
    <g id="Grupo_1073731" data-name="Grupo 1073731" transform="translate(810 10591)">
      <g id="Grupo_1073730" data-name="Grupo 1073730" transform="translate(0)" clip-path="url(#clip-path-2)">
        <path id="Trazado_824461" data-name="Trazado 824461" d="M153.249,101.307S180.5,106.864,198,87.864s-9.25-46.719-9.25-46.719,14.25-13.281,7.5-26.031c0,0-6.667-9.25-18.958-3.25,0,0-14.368-19.5-38.33-8.5s-23.705,42-22.962,47.668c0,0-29.575,45.508,37.25,50.275" transform="translate(-5.835 0)" fill="#00184c"/>
        <path id="Trazado_824462" data-name="Trazado 824462" d="M65.979,137.113l4.5,13.25,37.5-38.75a21.8,21.8,0,0,1,1.583-13.667c3.334-7,1.167-15,1.167-15a4.769,4.769,0,0,1,5.833,1.5l3.553,11.2L151,87.509a6.852,6.852,0,0,1,1.75-.312c2.051-.094,6.547.091,7.314,3.416,0,0,5.667-1.875,8.868,3.062l-3.2,1.438s5.021.479,6.188,3.812l-3.875,2.993s-2.688,4.883-5.146,6.528c-7.933,5.311-34.167,10.667-37.917,14.917L90.967,181.14c-4.874,8.28-11.4,15.743-20.905,17.14-6.372.936-16.043-.845-20.833-7.417a205.871,205.871,0,0,1-20.25-34Z" transform="translate(106.685 0)" fill="#ffa189"/>
        <line id="Línea_236" data-name="Línea 236" x1="11.417" y2="12.083" transform="translate(165.747 150.363)" fill="none" stroke="#f8756a" stroke-linecap="round" stroke-linejoin="round" stroke-width="1.5"/>
        <path id="Trazado_824463" data-name="Trazado 824463" d="M166.527,151.6l5.39,32.1s-11.666-19.478-15.25-26.833Z" transform="translate(-21.003 0)" fill="#f8756a"/>
        <line id="Línea_237" data-name="Línea 237" x1="20.667" y2="6.667" transform="translate(246.081 90.613)" fill="none" stroke="#f8756a" stroke-linecap="round" stroke-linejoin="round" stroke-width="1.5"/>
        <line id="Línea_238" data-name="Línea 238" x1="23" y2="7" transform="translate(249.414 95.113)" fill="none" stroke="#f8756a" stroke-linecap="round" stroke-linejoin="round" stroke-width="1.5"/>
        <line id="Línea_239" data-name="Línea 239" x1="23.034" y2="6.307" transform="translate(252.581 101.307)" fill="none" stroke="#f8756a" stroke-linecap="round" stroke-linejoin="round" stroke-width="1.5"/>
        <path id="Trazado_824464" data-name="Trazado 824464" d="M83.167,107.613s-11.5-6.25-16.125,5" transform="translate(157.372 0)" fill="none" stroke="#f8756a" stroke-linecap="round" stroke-linejoin="round" stroke-width="1.5"/>
        <path id="Trazado_824465" data-name="Trazado 824465" d="M210.08,128.113s-22.833,2.667-31.167,28.75,19,91.417,19,91.417H307.58l-40.667-73.5Z" transform="translate(-177.332 0)" fill="#00184c"/>
        <path id="Trazado_824466" data-name="Trazado 824466" d="M235.665,183.7l-6.124,4.5,12.916,60.083" transform="translate(-164.418 0)" fill="none" stroke="#013f81" stroke-linecap="round" stroke-linejoin="round" stroke-width="1.5"/>
        <path id="Trazado_824467" data-name="Trazado 824467" d="M298.334,137.713l-6.856,6.769a33.876,33.876,0,0,1-28.1,9.494l-.233-.03" transform="translate(-253.895 0)" fill="none" stroke="#013f81" stroke-linecap="round" stroke-linejoin="round" stroke-width="1.5"/>
        <path id="Trazado_824468" data-name="Trazado 824468" d="M294.643,248.28s-24.667-76.058-15.667-94.029" transform="translate(-264.062 0)" fill="none" stroke="#013f81" stroke-linecap="round" stroke-linejoin="round" stroke-width="1.5"/>
        <path id="Trazado_824469" data-name="Trazado 824469" d="M167.25,68.18c4.687-5.906,11.316-9.11,17.036-10.847a44.342,44.342,0,0,1,16.564-1.656l17.233,1.436,22.8,13.876,8.413,4.5a28.588,28.588,0,0,1,13.68,16,60.581,60.581,0,0,1,1.858,6.882c3,14.25,10,38.75,10,38.75l-37,19.75-8.688-17.833a23.891,23.891,0,0,1-6.562.417c-9.333,5.5-30.833,35.333-30.833,35.333l-56.833-46.667S157.25,80.78,167.25,68.18" transform="translate(-102.169 0)" fill="#1574dd"/>
        <path id="Trazado_824470" data-name="Trazado 824470" d="M162.057,139.03s9.852-.119,11.6-8.583a96.773,96.773,0,0,1,5.333-17.167s-2.375,31.083,1.61,38.32l-9.86,5.263Z" transform="translate(-35.081 0)" fill="#013f81"/>
        <path id="Trazado_824471" data-name="Trazado 824471" d="M131.5,57.113l18.285-9.075A7.667,7.667,0,0,1,145,40.8a7.2,7.2,0,1,1,14.375,0c0,.2-.014.39-.028.584l.305-.26c8.473-1.137,25.081-21.394,25.084-21.4A14.459,14.459,0,0,1,188,27.28l-.333,8.5,6.333,11h-5.75s.083,16.666-7.917,20.666c-6.971,3.486-13.687,1.149-17.946-2.046L154.3,70.988s-2.466,20.292-15.466,18.625c-15.974-2.048-7.333-32.5-7.333-32.5" transform="translate(-15.587 0)" fill="#ffa189"/>
        <path id="Trazado_824472" data-name="Trazado 824472" d="M135.328,40.363c8.862-3.907,22.575-20.632,22.578-20.636a14.365,14.365,0,0,1,3.1,6.588c-6.74,4.492-17.256,11.014-25.681,14.049Z" transform="translate(11.244 0)" fill="#f8756a"/>
        <path id="Trazado_824473" data-name="Trazado 824473" d="M168.43,65.4s-5.137-5.492-7.137-9.89c0,0-1.45,9.563.525,14.458Z" transform="translate(-21.629 0)" fill="#f8756a"/>
        <line id="Línea_240" data-name="Línea 240" x1="4.737" y1="7.25" transform="translate(134.414 36.738)" fill="none" stroke="#f8756a" stroke-linecap="round" stroke-linejoin="round" stroke-width="1.5"/>
        <path id="Trazado_824474" data-name="Trazado 824474" d="M150.009,51.78l-8.167-3.333s-1.271,4.416,3.042,5.791c3.5,1.117,5.125-2.458,5.125-2.458" transform="translate(15.905 0)" fill="#fcfbff"/>
        <path id="Trazado_824475" data-name="Trazado 824475" d="M139.354,36.613c0,1.07.616,1.937,1.375,1.937s1.375-.867,1.375-1.937-.616-1.937-1.375-1.937-1.375.867-1.375,1.937" transform="translate(26.123 0)" fill="#00184c"/>
        <path id="Trazado_824476" data-name="Trazado 824476" d="M145.229,29.459a6.264,6.264,0,0,0-6.812,2.625" transform="translate(23.935 0)" fill="none" stroke="#00184c" stroke-linecap="round" stroke-linejoin="round" stroke-width="3"/>
        <path id="Trazado_824477" data-name="Trazado 824477" d="M157.917,132.113l-.5,14,42.75,53.75L229.5,211.619a10.871,10.871,0,0,1,5.3,4.531l14.118,23.713a8.213,8.213,0,0,1-9-1.25l1.75,3.625s-6.625,1.625-9.875-1.875l1.5,2.875a13.831,13.831,0,0,1-8.263.371s-6.112,0-8.487-2.371c-3.88-3.874-9.75-12.5-9.75-12.5s-9.625.875-13.75-5.125l-4.125-6-53.906-35.4a31.479,31.479,0,0,1-14.13-24.23l-1.714-25.869Z" transform="translate(-60.503 0)" fill="#ffa189"/>
        <line id="Línea_241" data-name="Línea 241" x1="10.5" y1="18.125" transform="translate(168.914 220.488)" fill="none" stroke="#f8756a" stroke-linecap="round" stroke-linejoin="round" stroke-width="1.5"/>
        <line id="Línea_242" data-name="Línea 242" x1="9.375" y1="17.625" transform="translate(161.914 222.738)" fill="none" stroke="#f8756a" stroke-linecap="round" stroke-linejoin="round" stroke-width="1.5"/>
        <line id="Línea_243" data-name="Línea 243" x1="9.112" y1="17.496" transform="translate(155.414 226.114)" fill="none" stroke="#f8756a" stroke-linecap="round" stroke-linejoin="round" stroke-width="1.5"/>
        <path id="Trazado_824478" data-name="Trazado 824478" d="M248.917,132.113h-38.75l.475,7.163Z" transform="translate(-151.502 0)" fill="#f8756a"/>
        <rect id="Rectángulo_382950" data-name="Rectángulo 382950" width="93.25" height="7.917" transform="translate(139.664 240.363)" fill="#1574dd"/>
        <path id="Trazado_824479" data-name="Trazado 824479" d="M0,248.28H99.478l20-78.333H20Z" transform="translate(188.103 0)" fill="#b5e1ff"/>
        <path id="Trazado_824480" data-name="Trazado 824480" d="M112.478,169.947h7l-20,78.333h-7Z" transform="translate(95.625 0)" fill="#1574dd"/>
        <path id="Trazado_824481" data-name="Trazado 824481" d="M45.595,206.41c-1.037,4.153.729,8.17,3.944,8.973s6.662-1.913,7.7-6.066-.729-8.17-3.944-8.973-6.662,1.913-7.7,6.066" transform="translate(204.748 0)" fill="#fcfbff"/>
        <line id="Línea_244" data-name="Línea 244" y1="46.5" x2="2.25" transform="translate(97.414 85.613)" fill="none" stroke="#013f81" stroke-linecap="round" stroke-linejoin="round" stroke-width="1.5"/>
        <line id="Línea_245" data-name="Línea 245" y1="27.653" transform="translate(58.664 104.46)" fill="none" stroke="#013f81" stroke-linecap="round" stroke-linejoin="round" stroke-width="1.5"/>
      </g>
    </g>
    <g id="Grupo_1073733" data-name="Grupo 1073733" transform="translate(988.219 10451.235)">
      <g id="Grupo_1073732" data-name="Grupo 1073732" clip-path="url(#clip-path-3)">
        <path id="Trazado_824482" data-name="Trazado 824482" d="M189.1,46.132,114.746,3.207c-7.406-4.276-19.525-4.276-26.931,0L13.466,46.132C6.059,50.408,0,60.9,0,69.456v85.852c0,8.552,6.059,19.048,13.466,23.325l74.349,42.924c7.406,4.277,19.525,4.277,26.931,0l74.35-42.924c7.406-4.277,13.465-14.773,13.465-23.325V69.456c0-8.552-6.059-19.048-13.465-23.324" fill="#def2ff"/>
        <path id="Trazado_824483" data-name="Trazado 824483" d="M153.274,95.767a50.723,50.723,0,1,0-72.453,45.84c5.543,3.367,5.557,7.739,5.316,15.546-.2,6.572-.647,11.867,2.382,14.648,2.418,2.649,7.785,4.493,14.032,4.493s11.614-1.844,14.034-4.493c3.029-2.781,2.584-8.076,2.38-14.648-.24-7.807-.226-12.179,5.315-15.546a50.727,50.727,0,0,0,28.994-45.84" fill="#f2ac30"/>
        <path id="Trazado_824484" data-name="Trazado 824484" d="M153.774,95.767a51.842,51.842,0,0,0-34.932-48.575c-20.9-7.176-44.359.656-57.5,18.156-13.788,18.359-12.929,44.309,1.077,62.239A51.485,51.485,0,0,0,75,138.947c2.425,1.576,5.259,2.593,7.465,4.47s2.936,4.615,3.17,7.387c.5,5.877-1,11.965.451,17.752,1.173,4.669,6.233,6.709,10.46,7.645,7.138,1.579,19.832.824,22.482-7.645,2.622-8.383-3.989-21.924,6.149-26.827,17.465-8.445,28.461-26.709,28.6-45.962a.5.5,0,0,0-1,0,50.285,50.285,0,0,1-28.106,45.1c-4.048,2.028-5.825,5.562-6.195,9.938-.512,6.047,1.674,13.311-.99,18.985-2.835,6.039-12.873,6.36-18.392,5.812a18.289,18.289,0,0,1-9.449-3.419c-2.644-2.09-3.046-5.267-3.143-8.426-.171-5.549,1.121-11.528-.6-16.929-1.526-4.791-6.544-6.313-10.4-8.744A50.231,50.231,0,0,1,52.632,90.195c2.448-23.906,22.681-42.75,46.417-44.531a50.229,50.229,0,0,1,53.725,50.1.5.5,0,0,0,1,0" fill="#f2ac30"/>
        <path id="Trazado_824485" data-name="Trazado 824485" d="M119.044,150.063a76.664,76.664,0,0,1-32.985,0,54.634,54.634,0,0,1,.077,7.09c-.2,6.572-.645,11.867,2.383,14.648,2.418,2.649,7.784,4.493,14.031,4.493s11.614-1.844,14.034-4.493c3.03-2.781,2.585-8.076,2.381-14.648a54.957,54.957,0,0,1,.079-7.09" fill="#32015c"/>
        <path id="Trazado_824486" data-name="Trazado 824486" d="M118.911,149.58a77.336,77.336,0,0,1-32.719,0,.505.505,0,0,0-.633.482c.58,6.468-1.654,14.155,1.2,20.232,2.523,5.378,10.674,6.428,15.793,6.5,5.465.077,12.841-1.3,15.8-6.5,1.336-2.35,1.273-5.469,1.263-8.074-.014-4.053-.428-8.11-.066-12.158.058-.642-.943-.636-1,0-.538,6,1,12.332-.485,18.227-1.564,6.228-10.246,7.431-15.508,7.505-5.536.078-13.6-1.416-15.506-7.505-.837-2.677-.578-5.76-.495-8.522a81.2,81.2,0,0,0,.009-9.705l-.633.483a78.624,78.624,0,0,0,33.251,0c.63-.137.363-1.1-.266-.965" fill="#32015c"/>
        <path id="Trazado_824487" data-name="Trazado 824487" d="M96.622,153.468h-.035a1,1,0,0,1-.965-1.033c.315-9.136-1.082-21.3-4.531-30.972a21.673,21.673,0,0,1-3.23.145c-9.749-.285-15.328-5.412-17.144-9.717-1.143-2.71-.933-5.3.564-6.93.958-1.042,3.295-2.552,8.186-.961,5.931,1.932,10.1,7.887,12.934,15.219a18.555,18.555,0,0,0,9.063-4.908,30.966,30.966,0,0,1-8.99-20.088c-.3-8.312,4.233-11.978,8.577-12.638a9.487,9.487,0,0,1,10.721,6.674c1.612,5.952-.658,17.393-6.608,24.937q-.414.525-.844,1.017a20.369,20.369,0,0,0,3.151,2.169,17.346,17.346,0,0,0,3.654,1.521c3.646-10.979,8.955-15.734,11.954-17.64a8.262,8.262,0,0,1,8.426-.594,6.651,6.651,0,0,1,3.531,5.832c.035,2.443-1.168,7.266-9.6,12.127a19.029,19.029,0,0,1-12.9,2.645c-2.169,7.232-3.632,17.107-3.27,30.52a1,1,0,0,1-.973,1.028,1.021,1.021,0,0,1-1.027-.973c-.364-13.532,1.064-23.585,3.261-31.034a19.426,19.426,0,0,1-4.024-1.682,22.133,22.133,0,0,1-3.555-2.467,20.456,20.456,0,0,1-9.852,5.453c3.689,10.659,4.793,23.613,4.525,31.385a1,1,0,0,1-1,.966M75.567,105.3a3.67,3.67,0,0,0-2.813,1.013c-.952,1.036-1.025,2.83-.195,4.8,1.586,3.758,6.56,8.237,15.361,8.494a19.506,19.506,0,0,0,2.441-.078c-2.7-6.75-6.5-12-11.513-13.627a10.782,10.782,0,0,0-3.281-.6m37.588,13.036a17.337,17.337,0,0,0,11.284-2.442c5.511-3.179,8.645-6.957,8.6-10.366a4.616,4.616,0,0,0-2.481-4.1,6.3,6.3,0,0,0-6.4.522c-2.214,1.407-7.366,5.677-11,16.387M102.513,83.475a7.678,7.678,0,0,0-1.162.087c-3.492.529-7.132,3.589-6.878,10.588a28.824,28.824,0,0,0,8.364,18.718c.267-.306.52-.611.757-.912,6.083-7.713,7.537-18.416,6.248-23.174a7.392,7.392,0,0,0-7.329-5.307" fill="#32015c"/>
        <path id="Trazado_824488" data-name="Trazado 824488" d="M102.031,158.407a46.9,46.9,0,0,1-13.282-1.74.5.5,0,1,1,.282-.959c8.714,2.562,17.884,1.722,25.8.733a.507.507,0,0,1,.557.435.5.5,0,0,1-.434.557,103.947,103.947,0,0,1-12.92.974"/>
        <path id="Trazado_824489" data-name="Trazado 824489" d="M25.642,143.287c-3.016,2.362-5.924,1.192-6.461-2.6l-2.9-20.487c-.537-3.795,1.928-5.726,5.482-4.294l19.192,7.729c3.554,1.431,3.994,4.534.978,6.9Z" fill="#d4336e"/>
        <path id="Trazado_824490" data-name="Trazado 824490" d="M93.262,205.962a4.019,4.019,0,0,1-1.708-.36c-.837-.389-2.231-1.47-2.168-4.338.058-2.678,1.685-5,4.579-6.524a13.965,13.965,0,0,1,1.515-.684,12.618,12.618,0,0,0-7.191-3.046,7.908,7.908,0,0,0-8.117,4.4.5.5,0,0,1-.894-.447,8.882,8.882,0,0,1,9.089-4.945,13.611,13.611,0,0,1,8.177,3.678c5.033-1.528,11.411-.833,15.626,1.917a.5.5,0,1,1-.547.837c-3.855-2.514-9.63-3.21-14.309-1.938a9.347,9.347,0,0,1,1.853,3.231,6.1,6.1,0,0,1-1.863,6.577,6.281,6.281,0,0,1-4.042,1.647m3.012-11.135a13.606,13.606,0,0,0-1.842.8c-1.81.955-3.982,2.712-4.046,5.662-.038,1.728.512,2.907,1.59,3.41,1.3.608,3.22.14,4.668-1.134a5.1,5.1,0,0,0,1.569-5.522,8.6,8.6,0,0,0-1.939-3.214" fill="#495edb"/>
        <path id="Trazado_824491" data-name="Trazado 824491" d="M173.218,153.977a12.032,12.032,0,1,1-12.032-12.033,12.033,12.033,0,0,1,12.032,12.033" fill="#7db3db"/>
        <path id="Trazado_824492" data-name="Trazado 824492" d="M174.178,65.178a5.829,5.829,0,0,1-8.17,1.111L156.944,59.4A5.832,5.832,0,0,1,164,50.115l9.063,6.891a5.833,5.833,0,0,1,1.111,8.172" fill="#ffc4c4"/>
        <path id="Trazado_824493" data-name="Trazado 824493" d="M48.572,160.271a5.829,5.829,0,0,1,7.339,3.761L59.4,174.868a5.832,5.832,0,0,1-11.1,3.577L44.81,167.609a5.832,5.832,0,0,1,3.762-7.338" fill="#ffc4c4"/>
        <path id="Trazado_824494" data-name="Trazado 824494" d="M32.622,76.775a8.414,8.414,0,1,1,8.414-8.414,8.423,8.423,0,0,1-8.414,8.414m0-15.828a7.414,7.414,0,1,0,7.414,7.414,7.423,7.423,0,0,0-7.414-7.414" fill="#495edb"/>
        <path id="Trazado_824495" data-name="Trazado 824495" d="M77.31,38.1a20.138,20.138,0,0,1-5.5-.867.5.5,0,0,1,.274-.962c5.264,1.5,8.856,1.016,12.393-1.672a28.164,28.164,0,0,0,3.095-2.749A10.13,10.13,0,0,1,83.3,27.927a9.025,9.025,0,0,1-.727-7.534,4.862,4.862,0,0,1,3.416-3c2.452-.314,5.484.868,6.42,3.363,1.859,3.711-.544,7.772-3.1,10.687a8.888,8.888,0,0,0,3.734.233,10.25,10.25,0,0,0,8.411-7.54.5.5,0,1,1,.966.258,11.249,11.249,0,0,1-9.233,8.272,9.878,9.878,0,0,1-4.625-.4,30.858,30.858,0,0,1-3.478,3.14A12.328,12.328,0,0,1,77.31,38.1m9.48-19.772a4.942,4.942,0,0,0-.615.038,3.831,3.831,0,0,0-2.674,2.4,7.946,7.946,0,0,0,.654,6.634A9.074,9.074,0,0,0,88.3,31.078c2.673-2.982,4.778-6.768,3.2-9.928-.694-1.845-2.851-2.819-4.705-2.819" fill="#f2ac30"/>
      </g>
    </g>
    <g id="Grupo_1073729" data-name="Grupo 1073729" transform="translate(1148 10470)">
      <g id="Grupo_1073728" data-name="Grupo 1073728" clip-path="url(#clip-path-4)">
        <path id="Trazado_824419" data-name="Trazado 824419" d="M27.149,304.167s51.833,50.333,129.75,8.75l-2.079-12.584-126.1-7.679Z" transform="translate(87.714)" fill="#d2552a"/>
        <path id="Trazado_824420" data-name="Trazado 824420" d="M122.512,265.417l26.833,104.25H24.6s-11.538-68-5.394-104.25Z" transform="translate(105.018)" fill="#7040bf"/>
        <path id="Trazado_824421" data-name="Trazado 824421" d="M39.342,270.364c.2-1.7.437-3.357.707-4.947H143.36l4.89,19Z" transform="translate(84.17)" fill="#492994"/>
        <path id="Trazado_824422" data-name="Trazado 824422" d="M113.511,369.667l-15.125-69-9.612-3.035" transform="translate(69.477)" fill="none" stroke="#492994" stroke-linecap="round" stroke-linejoin="round" stroke-width="1.5"/>
        <path id="Trazado_824423" data-name="Trazado 824423" d="M132.177,151.167a29.714,29.714,0,0,0,9-26.75c-2.75-17-15.75-19.75-15.75-19.75s15.25-15.75-2.5-36.25c0,0-5.5-5.25-12.25-6,0,0-5.5-25.5-34.5-22.75s-20.124,31-11.937,34.75c0,0-4.914,13.25,2.512,19.75v8.75s-19.825,5-22.325,26,19.813,28.5,19.813,28.5,57.189,4.67,67.937-6.25" transform="translate(85.936)" fill="#00184c"/>
        <path id="Trazado_824424" data-name="Trazado 824424" d="M160.77,130.948l42.194,11.38a8.988,8.988,0,0,1,5.821,4.9c5.831,12.587,24.152,53.189,27.715,73.938,0,0,7.347,25.346-8.974,34.793a22.554,22.554,0,0,1-14.542,2.587l-11.234-1.63,9.25,56s-40.25,5.25-48.25-23l-5-24.5h-50s3.5,28.25-26.5,38.75l8.5-62.25-4.393-24.054L69.342,231.819A41.161,41.161,0,0,1,52.7,240.767c-9.929,2.567-23.291,1.831-31.2-15.85C7.75,194.167,0,153.667,0,153.667l18.25-18.75L54,187.167l31.054-42.818a9.006,9.006,0,0,1,5.167-3.463l41.029-9.938Z" transform="translate(33.613)" fill="#ffac00"/>
        <path id="Trazado_824425" data-name="Trazado 824425" d="M77.523,192c1.569-17.972,20.333-49.667,28.333-61.052h29.52s-15.186,83.552-3.02,134.469h-50S76.388,205.007,77.523,192" transform="translate(59.007)" fill="#fcfbff"/>
        <path id="Trazado_824426" data-name="Trazado 824426" d="M80.4,214.644c15.686,5.047,35.012,7.564,49.576,8.812.308,14.81,1.643,29.382,4.649,41.961h-50S81.79,236.736,80.4,214.644" transform="translate(56.739)" fill="#b5e1ff"/>
        <path id="Trazado_824427" data-name="Trazado 824427" d="M94.864,130.948l.786-11.179a17,17,0,0,1-5.536-.852c-13.5-4.5-9.985-20.963-8-30A64.1,64.1,0,0,1,86.139,76.09c10.62,4.014,21.475-1.673,21.475-1.673,4,8.5,11.5,9.75,11.5,9.75-.335,6.358,1.791,10.3,3.236,12.215-.546,1.735,2.034,34.566,2.034,34.566s-3.1,19.468-4.533,32.368c-4.112.342-8.336.531-12.656.531a143.64,143.64,0,0,1-29.816-3.033,253.538,253.538,0,0,1,17.485-29.866" transform="translate(69.999)" fill="#ffa189"/>
        <path id="Trazado_824428" data-name="Trazado 824428" d="M101.2,80.167s-12.325,3.888-18.571-2.59c.206-.5.42-1,.645-1.486,10.62,4.013,21.475-1.674,21.475-1.674,4,8.5,11.5,9.75,11.5,9.75a24.133,24.133,0,0,0,.025,2.924c-4.3.134-11.744-.627-15.074-6.924" transform="translate(72.869)" fill="#f8756a"/>
        <path id="Trazado_824429" data-name="Trazado 824429" d="M70.876,92.884c-3.038,3.3-3.111,8.177-.164,10.888s7.8,2.231,10.836-1.072,3.112-8.178.164-10.888-7.8-2.231-10.836,1.072" transform="translate(119.338)" fill="#ffa189"/>
        <path id="Trazado_824430" data-name="Trazado 824430" d="M92.913,227.917s-3.5-15.25-24-17.75-43-.75-51.75-3.5l-1.764,25.5s36.912,23.25,56.514,24.75Z" transform="translate(163.45)" fill="#ffac00"/>
        <path id="Trazado_824431" data-name="Trazado 824431" d="M46.961,209.981S44.568,203.995,40,184.517l.805,25.056Z" transform="translate(184.802)" fill="#d2552a"/>
        <path id="Trazado_824432" data-name="Trazado 824432" d="M89.284,119.769a22.621,22.621,0,0,0,17.339-11.227s-.952,13.846-17.848,18.471Z" transform="translate(76.364)" fill="#f8756a"/>
        <line id="Línea_232" data-name="Línea 232" x1="7.25" y2="5" transform="translate(191.363 94.542)" fill="none" stroke="#f8756a" stroke-linecap="round" stroke-linejoin="round" stroke-width="1.5"/>
        <path id="Trazado_824433" data-name="Trazado 824433" d="M151.65,217.863s-4.049-14.685-4.107-25.946c-.038-7.4,7.25-16.5,9.356-25.25" transform="translate(-32.68)" fill="none" stroke="#d2552a" stroke-linecap="round" stroke-linejoin="round" stroke-width="1.5"/>
        <path id="Trazado_824434" data-name="Trazado 824434" d="M116.9,239.167h52.25l-9.5-68.25H107.4Z" transform="translate(-4.786)" fill="#1574dd"/>
        <path id="Trazado_824435" data-name="Trazado 824435" d="M147.543,208.782s-8.229-3.74-10.854-7.115-11.6-8.148-11.6-8.148l.854,7.393s-27.625-8.62-31.125-7.245,3.25,5.5,3.25,5.5-6.5-2.343-6.75-.984,2,4.984,3.375,5.984c0,0-1.75-.5-1.875,1.25s9,9.125,16.5,12c0,0-8.375-1.75-10.75,0,0,0,12.25,6.125,16.75,7.5s30.81,4.371,30.81,4.371Z" transform="translate(32.924)" fill="#ffa189"/>
        <line id="Línea_233" data-name="Línea 233" x2="22.625" y2="7.5" transform="translate(130.988 199.167)" fill="none" stroke="#f8756a" stroke-linecap="round" stroke-linejoin="round" stroke-width="1.5"/>
        <path id="Trazado_824436" data-name="Trazado 824436" d="M120.524,204.167s15.25,6,23.625,8.25" transform="translate(7.089)" fill="none" stroke="#f8756a" stroke-linecap="round" stroke-linejoin="round" stroke-width="1.5"/>
        <line id="Línea_234" data-name="Línea 234" x2="7.5" y2="2.125" transform="translate(142.238 217.417)" fill="none" stroke="#f8756a" stroke-linecap="round" stroke-linejoin="round" stroke-width="1.5"/>
        <path id="Trazado_824437" data-name="Trazado 824437" d="M60.03,233.465A263.547,263.547,0,0,0,90.8,249.716" transform="translate(120.93)" fill="none" stroke="#d2552a" stroke-linecap="round" stroke-linejoin="round" stroke-width="1.5"/>
        <path id="Trazado_824438" data-name="Trazado 824438" d="M91.149,227.917s-3.5-15.25-24-17.75-43-.75-51.75-3.5" transform="translate(165.214)" fill="none" stroke="#d2552a" stroke-linecap="round" stroke-linejoin="round" stroke-width="1.5"/>
        <path id="Trazado_824439" data-name="Trazado 824439" d="M174.649,187.167a37.621,37.621,0,0,1,9.5,17" transform="translate(-87.036)" fill="none" stroke="#d2552a" stroke-linecap="round" stroke-linejoin="round" stroke-width="1.5"/>
        <path id="Trazado_824440" data-name="Trazado 824440" d="M97.436,208.782l-1.419,20.506-4.722-.555Z" transform="translate(83.03)" fill="#f8756a"/>
        <path id="Trazado_824441" data-name="Trazado 824441" d="M271.761,136.184,257.715,117.51a45.994,45.994,0,0,0-13.125-9.75c-9.357-4.4-21.625-12.75-21.625-12.75s-4.125,2.625,0,6.5l11.125,10.75-6.92,5.136a4.756,4.756,0,0,0-.163,7.837c.144.1.3.189.458.277a5.428,5.428,0,0,0,3,6.625,5.031,5.031,0,0,0,3.125,4.625c3.25,1.375,8.8-.75,8.8-.75s1.2,6.69,10.95,8.565l4.3,6.113Z" transform="translate(-221.131)" fill="#ffa189"/>
        <path id="Trazado_824442" data-name="Trazado 824442" d="M264.991,115.385l-20-1.875s-1.875,5.5,3.25,6.75a100.933,100.933,0,0,1,10.375,3.25s-.83,7.875,7.022,10Z" transform="translate(-238.532)" fill="#ffa189"/>
        <path id="Trazado_824443" data-name="Trazado 824443" d="M261.452,115.053l-16.461-1.543s-1.875,5.5,3.25,6.75a100.93,100.93,0,0,1,10.375,3.25s-.83,7.875,7.023,10" transform="translate(-238.533)" fill="none" stroke="#f8756a" stroke-linecap="round" stroke-linejoin="round" stroke-width="1.5"/>
        <path id="Trazado_824444" data-name="Trazado 824444" d="M265.428,123.51s-10.125,3.25-13.75,2" transform="translate(-245.344)" fill="none" stroke="#f8756a" stroke-linecap="round" stroke-linejoin="round" stroke-width="1.5"/>
        <path id="Trazado_824445" data-name="Trazado 824445" d="M262.428,129.1s-5.929,3.655-11.929,3.03" transform="translate(-241.165)" fill="none" stroke="#f8756a" stroke-linecap="round" stroke-linejoin="round" stroke-width="1.5"/>
        <path id="Trazado_824446" data-name="Trazado 824446" d="M247.618,136.01s3.154-2.356,2.862-3.8" transform="translate(-226.355)" fill="none" stroke="#f8756a" stroke-linecap="round" stroke-linejoin="round" stroke-width="1.5"/>
        <path id="Trazado_824447" data-name="Trazado 824447" d="M238.568,136.184,221.132,146.2l3.319,4.488Z" transform="translate(-187.938)" fill="#f8756a"/>
        <path id="Trazado_824448" data-name="Trazado 824448" d="M101.591,91.565c-.08,1.067.47,1.978,1.227,2.034s1.436-.762,1.515-1.829-.469-1.978-1.227-2.035-1.435.763-1.515,1.83" transform="translate(65.838)" fill="#00184c"/>
        <path id="Trazado_824449" data-name="Trazado 824449" d="M115.528,90.19c-.08,1.067.47,1.978,1.227,2.034s1.436-.762,1.515-1.829-.469-1.978-1.227-2.035-1.435.763-1.515,1.83" transform="translate(37.964)" fill="#00184c"/>
        <path id="Trazado_824450" data-name="Trazado 824450" d="M104.111,86.087a6.266,6.266,0,0,0-7.077-1.793" transform="translate(70.617)" fill="none" stroke="#00184c" stroke-linecap="round" stroke-linejoin="round" stroke-width="3"/>
        <path id="Trazado_824451" data-name="Trazado 824451" d="M117.566,83.354a6.472,6.472,0,0,0-4.807-2.252" transform="translate(41.437)" fill="none" stroke="#00184c" stroke-linecap="round" stroke-linejoin="round" stroke-width="3"/>
        <path id="Trazado_824452" data-name="Trazado 824452" d="M96.014,91.714c0,4.041,2.88,7.317,6.433,7.317s6.434-3.276,6.434-7.317S106,84.4,102.447,84.4,96.014,87.673,96.014,91.714Z" transform="translate(66.867)" fill="none" stroke="#fcfbff" stroke-linecap="round" stroke-linejoin="round" stroke-width="1.5"/>
        <path id="Trazado_824453" data-name="Trazado 824453" d="M113.771,89.87c0,4.041,2.376,7.317,5.307,7.317s5.306-3.276,5.306-7.317-2.376-7.317-5.306-7.317S113.771,85.829,113.771,89.87Z" transform="translate(33.607)" fill="none" stroke="#fcfbff" stroke-linecap="round" stroke-linejoin="round" stroke-width="1.5"/>
        <line id="Línea_235" data-name="Línea 235" x1="4.953" y1="0.846" transform="translate(157.99 89.871)" fill="none" stroke="#fcfbff" stroke-linecap="round" stroke-linejoin="round" stroke-width="1.5"/>
        <path id="Trazado_824454" data-name="Trazado 824454" d="M117.565,91.6s-5.132,5.816-5.682,8.566,4.625,2.375,4.625,2.375" transform="translate(42.355)" fill="none" stroke="#f8756a" stroke-linecap="round" stroke-linejoin="round" stroke-width="1.5"/>
        <path id="Trazado_824455" data-name="Trazado 824455" d="M113.385,105.042l-7.394,1s.244,3.333,4.289,2.833,3.105-3.833,3.105-3.833" transform="translate(52.291)" fill="#fcfbff"/>
        <ellipse id="Elipse_9782" data-name="Elipse 9782" cx="10.75" cy="10.75" rx="10.75" ry="10.75" transform="translate(186.863 104.084)" fill="none" stroke="#fcfbff" stroke-linecap="round" stroke-linejoin="round" stroke-width="1.5"/>
        <path id="Trazado_824456" data-name="Trazado 824456" d="M154.42,170.917l.812,5.417H136.753l-.74-5.417" transform="translate(-19.483)" fill="none" stroke="#00184c" stroke-linecap="round" stroke-linejoin="round" stroke-width="1.5"/>
        <path id="Trazado_824457" data-name="Trazado 824457" d="M31.716,0H82.748a5.628,5.628,0,0,1,5.628,5.628V24.39a5.629,5.629,0,0,1-5.628,5.629H49.777L39.314,41.792V30.019h-7.6a5.628,5.628,0,0,1-5.628-5.629V5.628A5.628,5.628,0,0,1,31.716,0" transform="translate(157.298)" fill="#ffce00"/>
        <path id="Trazado_824458" data-name="Trazado 824458" d="M41,14.309a2.975,2.975,0,1,0,2.975-2.975A2.975,2.975,0,0,0,41,14.309" transform="translate(183.814)" fill="#b5e1ff"/>
        <path id="Trazado_824459" data-name="Trazado 824459" d="M55.257,14.309a2.976,2.976,0,1,0,2.976-2.975,2.976,2.976,0,0,0-2.976,2.975" transform="translate(155.297)" fill="#b5e1ff"/>
        <path id="Trazado_824460" data-name="Trazado 824460" d="M68.2,14.309a2.975,2.975,0,1,0,2.975-2.975A2.975,2.975,0,0,0,68.2,14.309" transform="translate(129.414)" fill="#b5e1ff"/>
      </g>
    </g>
  </g>
</svg>
