<svg xmlns="http://www.w3.org/2000/svg" width="67" height="67" viewBox="0 0 67 67">
  <g id="Grupo_1073760" data-name="Grupo 1073760" transform="translate(-633 -11448)">
    <g id="Grupo_1073643" data-name="Grupo 1073643" transform="translate(434.5 9387)">
      <g id="Grupo_1073043" data-name="Grupo 1073043" transform="translate(-19.5 -883)">
        <circle id="Elipse_9669" data-name="Elipse 9669" cx="33.5" cy="33.5" r="33.5" transform="translate(218 2944)" fill="#ffce00"/>
      </g>
    </g>
    <g id="escritorio" transform="translate(643.47 11439.451)">
      <g id="Grupo_1073759" data-name="Grupo 1073759" transform="translate(0 20.299)">
        <rect id="Rectángulo_382969" data-name="Rectángulo 382969" width="10.679" height="4.855" transform="translate(17.443 30.748)" fill="#9facba"/>
        <rect id="Rectángulo_382970" data-name="Rectángulo 382970" width="3.56" height="4.855" transform="translate(17.443 30.748)" fill="#8d9ca8"/>
        <path id="Rectángulo_382971" data-name="Rectángulo 382971" d="M-6.833-7.5H3.847a.667.667,0,0,1,.667.667v4.855a.667.667,0,0,1-.667.667H-6.833A.667.667,0,0,1-7.5-1.978V-6.833A.667.667,0,0,1-6.833-7.5ZM3.179-6.165H-6.165v3.52H3.179Z" transform="translate(24.276 37.58)"/>
        <path id="Trazado_824634" data-name="Trazado 824634" d="M7.5,314.825a1.78,1.78,0,0,0,1.78,1.78H49.951a1.78,1.78,0,0,0,1.78-1.78V311.8H7.5Z" transform="translate(-6.833 -285.857)" fill="#c5d3dd"/>
        <path id="Trazado_824635" data-name="Trazado 824635" d="M11.1,314.825V311.8H7.5v3.026a1.78,1.78,0,0,0,1.78,1.78h3.6A1.78,1.78,0,0,1,11.1,314.825Z" transform="translate(-6.833 -285.857)" fill="#b6c4cf"/>
        <path id="Trazado_824636" data-name="Trazado 824636" d="M43.118,310.44H40.137a.667.667,0,0,1,0-1.335h2.981a1.114,1.114,0,0,0,1.112-1.112v-2.358H1.335v2.358A1.114,1.114,0,0,0,2.447,309.1H37.022a.667.667,0,0,1,0,1.335H2.447A2.45,2.45,0,0,1,0,307.992v-3.026a.667.667,0,0,1,.667-.668H44.9a.667.667,0,0,1,.667.668v3.026A2.45,2.45,0,0,1,43.118,310.44Z" transform="translate(0 -279.024)"/>
        <path id="Línea_256" data-name="Línea 256" d="M19.154-6.165H-6.833A.667.667,0,0,1-7.5-6.833.667.667,0,0,1-6.833-7.5H19.154a.667.667,0,0,1,.667.667A.667.667,0,0,1,19.154-6.165Z" transform="translate(16.622 42.435)"/>
        <rect id="Rectángulo_382972" data-name="Rectángulo 382972" width="44.231" height="21.873" transform="translate(0.667 4.069)" fill="#dff6fd"/>
        <rect id="Rectángulo_382973" data-name="Rectángulo 382973" width="3.604" height="21.873" transform="translate(0.667 4.069)" fill="#c8effe"/>
        <path id="Rectángulo_382974" data-name="Rectángulo 382974" d="M-6.833-7.5H37.4a.667.667,0,0,1,.667.667V15.041a.667.667,0,0,1-.667.667H-6.833a.667.667,0,0,1-.667-.667V-6.833A.667.667,0,0,1-6.833-7.5ZM36.731-6.165h-42.9V14.373h42.9Z" transform="translate(7.5 10.901)"/>
        <path id="Trazado_824637" data-name="Trazado 824637" d="M49.951,27.8H9.28a1.78,1.78,0,0,0-1.78,1.78V31.2H51.731V29.579A1.78,1.78,0,0,0,49.951,27.8Z" transform="translate(-6.833 -27.132)" fill="#6bd9e7"/>
        <path id="Trazado_824638" data-name="Trazado 824638" d="M44.9,25.035H.667A.667.667,0,0,1,0,24.368V22.746A2.45,2.45,0,0,1,2.447,20.3H10.59a.667.667,0,0,1,0,1.335H2.447a1.114,1.114,0,0,0-1.112,1.112V23.7h42.9v-.954a1.114,1.114,0,0,0-1.112-1.112H13.705a.667.667,0,0,1,0-1.335H43.118a2.45,2.45,0,0,1,2.447,2.447v1.622A.667.667,0,0,1,44.9,25.035Z" transform="translate(0 -20.299)"/>
        <path id="Trazado_824639" data-name="Trazado 824639" d="M9.28,27.8a1.78,1.78,0,0,0-1.78,1.78V31.2h7.127V27.8Z" transform="translate(-6.833 -27.132)" fill="#6bd9e7"/>
        <path id="Trazado_824640" data-name="Trazado 824640" d="M12.884,27.8H9.28a1.78,1.78,0,0,0-1.78,1.78V31.2h3.6V29.579A1.78,1.78,0,0,1,12.884,27.8Z" transform="translate(-6.833 -27.132)" fill="#2ed1e2"/>
        <path id="Trazado_824641" data-name="Trazado 824641" d="M2.447,20.3H7.795a.667.667,0,0,1,.667.667v3.4a.667.667,0,0,1-.667.667H.667A.667.667,0,0,1,0,24.368V22.746A2.45,2.45,0,0,1,2.447,20.3Zm4.68,1.335H2.447a1.114,1.114,0,0,0-1.112,1.112V23.7H7.127Z" transform="translate(0 -20.299)"/>
        <g id="Grupo_1073758" data-name="Grupo 1073758" transform="translate(3.983 6.497)">
          <path id="Trazado_824642" data-name="Trazado 824642" d="M358.462,100.8v15.512h8.569a.445.445,0,0,0,.445-.445V101.244a.445.445,0,0,0-.445-.445Z" transform="translate(-330.543 -100.132)" fill="#fea613"/>
          <rect id="Rectángulo_382975" data-name="Rectángulo 382975" width="2.985" height="15.512" transform="translate(27.919 0.667)" fill="#fe9901"/>
          <path id="Trazado_824643" data-name="Trazado 824643" d="M351.63,93.3H360.2a1.114,1.114,0,0,1,1.112,1.112v14.622a1.114,1.114,0,0,1-1.112,1.112H351.63a.668.668,0,0,1-.668-.667V93.966A.668.668,0,0,1,351.63,93.3Zm8.346,1.335H352.3v14.177h7.679Z" transform="translate(-323.711 -93.299)"/>
          <path id="Trazado_824644" data-name="Trazado 824644" d="M387.905,135.216v-4.707a.267.267,0,0,1,.267-.267h3.239a.267.267,0,0,1,.267.267v4.707a.267.267,0,0,1-.267.267h-3.239A.267.267,0,0,1,387.905,135.216Z" transform="translate(-357.366 -126.954)" fill="#fff"/>
          <path id="Trazado_824644_-_Contorno" data-name="Trazado 824644 - Contorno" d="M384.579,129.318h-3.239a.935.935,0,0,1-.934-.934v-4.707a.935.935,0,0,1,.934-.934h3.239a.935.935,0,0,1,.934.934v4.707A.935.935,0,0,1,384.579,129.318Zm-2.839-1.335h2.438v-3.906H381.74Z" transform="translate(-350.534 -120.122)"/>
          <g id="Grupo_1073756" data-name="Grupo 1073756" transform="translate(0.667 0.667)">
            <path id="Trazado_824645" data-name="Trazado 824645" d="M54.953,103.943H52.7a.445.445,0,0,1-.445-.445v-2.254a.445.445,0,0,1,.445-.445h2.254a.445.445,0,0,1,.445.445V103.5A.445.445,0,0,1,54.953,103.943Z" transform="translate(-52.254 -100.799)" fill="#fed402"/>
            <path id="Trazado_824646" data-name="Trazado 824646" d="M53.744,103.5v-2.254a.445.445,0,0,1,.445-.445H52.7a.445.445,0,0,0-.445.445V103.5a.445.445,0,0,0,.445.445h1.49A.445.445,0,0,1,53.744,103.5Z" transform="translate(-52.254 -100.799)" fill="#fac600"/>
            <path id="Trazado_824647" data-name="Trazado 824647" d="M54.953,173.429H52.7a.445.445,0,0,1-.445-.445V170.73a.445.445,0,0,1,.445-.445h2.254a.445.445,0,0,1,.445.445v2.254A.445.445,0,0,1,54.953,173.429Z" transform="translate(-52.254 -164.101)" fill="#00f2a6"/>
            <path id="Trazado_824648" data-name="Trazado 824648" d="M53.744,172.983v-2.254a.445.445,0,0,1,.445-.445H52.7a.445.445,0,0,0-.445.445v2.254a.445.445,0,0,0,.445.445h1.49A.445.445,0,0,1,53.744,172.983Z" transform="translate(-52.254 -164.1)" fill="#05e39c"/>
            <path id="Trazado_824649" data-name="Trazado 824649" d="M54.953,242.914H52.7a.445.445,0,0,1-.445-.445v-2.254a.445.445,0,0,1,.445-.445h2.254a.445.445,0,0,1,.445.445v2.254A.445.445,0,0,1,54.953,242.914Z" transform="translate(-52.254 -227.402)" fill="#6bd9e7"/>
            <path id="Trazado_824650" data-name="Trazado 824650" d="M53.744,242.469v-2.254a.445.445,0,0,1,.445-.445H52.7a.445.445,0,0,0-.445.445v2.254a.445.445,0,0,0,.445.445h1.49A.445.445,0,0,1,53.744,242.469Z" transform="translate(-52.254 -227.402)" fill="#2ed1e2"/>
          </g>
          <g id="Grupo_1073757" data-name="Grupo 1073757">
            <path id="Trazado_824651" data-name="Trazado 824651" d="M48.121,97.778H45.866a1.114,1.114,0,0,1-1.112-1.112V94.411A1.114,1.114,0,0,1,45.866,93.3h2.254a1.114,1.114,0,0,1,1.112,1.112v2.254A1.114,1.114,0,0,1,48.121,97.778Zm-2.032-1.335H47.9V94.634H46.089Z" transform="translate(-44.754 -93.299)"/>
            <path id="Trazado_824652" data-name="Trazado 824652" d="M48.121,167.264H45.866a1.114,1.114,0,0,1-1.112-1.112V163.9a1.114,1.114,0,0,1,1.112-1.112h2.254a1.114,1.114,0,0,1,1.112,1.112v2.254A1.114,1.114,0,0,1,48.121,167.264Zm-2.032-1.335H47.9V164.12H46.089Z" transform="translate(-44.754 -156.601)"/>
            <path id="Trazado_824653" data-name="Trazado 824653" d="M48.121,236.749H45.866a1.114,1.114,0,0,1-1.112-1.112v-2.254a1.114,1.114,0,0,1,1.112-1.112h2.254a1.114,1.114,0,0,1,1.112,1.112v2.254A1.114,1.114,0,0,1,48.121,236.749Zm-2.032-1.335H47.9V233.6H46.089Z" transform="translate(-44.754 -219.902)"/>
          </g>
          <path id="Trazado_824654" data-name="Trazado 824654" d="M152.463,116.311H132.784a.445.445,0,0,1-.445-.445V101.244a.445.445,0,0,1,.445-.445h19.679Z" transform="translate(-124.544 -100.132)" fill="#fff"/>
          <path id="Trazado_824655" data-name="Trazado 824655" d="M145.63,110.146H125.951a1.114,1.114,0,0,1-1.112-1.112V94.411a1.114,1.114,0,0,1,1.112-1.112H145.63a.667.667,0,0,1,.667.667v15.512A.667.667,0,0,1,145.63,110.146Zm-19.456-1.335h18.789V94.634H126.174Z" transform="translate(-117.712 -93.299)"/>
          <path id="Línea_257" data-name="Línea 257" d="M4.424-6.165H-6.833A.667.667,0,0,1-7.5-6.833.667.667,0,0,1-6.833-7.5H4.424a.667.667,0,0,1,.667.667A.667.667,0,0,1,4.424-6.165Z" transform="translate(20.56 14.208)"/>
          <path id="Línea_258" data-name="Línea 258" d="M-6.06-6.165h-.773A.667.667,0,0,1-7.5-6.833.667.667,0,0,1-6.833-7.5h.773a.667.667,0,0,1,.667.667A.667.667,0,0,1-6.06-6.165Z" transform="translate(17.562 14.208)"/>
          <path id="Línea_259" data-name="Línea 259" d="M7.422-6.165H-6.833A.667.667,0,0,1-7.5-6.833.667.667,0,0,1-6.833-7.5H7.422a.667.667,0,0,1,.667.667A.667.667,0,0,1,7.422-6.165Z" transform="translate(17.562 16.933)"/>
          <path id="Línea_260" data-name="Línea 260" d="M.714-6.165H-6.833A.667.667,0,0,1-7.5-6.833.667.667,0,0,1-6.833-7.5H.714a.667.667,0,0,1,.667.667A.667.667,0,0,1,.714-6.165Z" transform="translate(17.562 19.658)"/>
          <path id="Trazado_824656" data-name="Trazado 824656" d="M152.463,104.572H132.339v-3.328a.445.445,0,0,1,.445-.445h19.679Z" transform="translate(-124.544 -100.132)" fill="#4f66d0"/>
          <path id="Trazado_824657" data-name="Trazado 824657" d="M145.63,98.407H125.506a.667.667,0,0,1-.667-.667V94.411a1.114,1.114,0,0,1,1.112-1.112H145.63a.667.667,0,0,1,.667.667V97.74A.667.667,0,0,1,145.63,98.407Zm-19.456-1.335h18.789V94.634H126.174Z" transform="translate(-117.712 -93.299)"/>
          <path id="Trazado_824658" data-name="Trazado 824658" d="M136.112,104.572h-3.773v-3.328a.445.445,0,0,1,.445-.445h3.328Z" transform="translate(-124.544 -100.132)" fill="#314dc9"/>
          <path id="Trazado_824659" data-name="Trazado 824659" d="M129.28,98.407h-3.773a.667.667,0,0,1-.667-.667V94.411a1.114,1.114,0,0,1,1.112-1.112h3.328a.667.667,0,0,1,.667.667V97.74A.667.667,0,0,1,129.28,98.407Zm-3.106-1.335h2.438V94.634h-2.438Z" transform="translate(-117.712 -93.299)"/>
          <path id="Línea_261" data-name="Línea 261" d="M-3.059-6.165H-6.833A.667.667,0,0,1-7.5-6.833.667.667,0,0,1-6.833-7.5h3.773a.667.667,0,0,1,.667.667A.667.667,0,0,1-3.059-6.165Z" transform="translate(37.371 20.392)"/>
          <path id="Línea_262" data-name="Línea 262" d="M-3.059-6.165H-6.833A.667.667,0,0,1-7.5-6.833.667.667,0,0,1-6.833-7.5h3.773a.667.667,0,0,1,.667.667A.667.667,0,0,1-3.059-6.165Z" transform="translate(37.371 17.876)"/>
        </g>
      </g>
      <path id="Trazado_824660" data-name="Trazado 824660" d="M40.028,456.5H7.945a.445.445,0,0,1-.445-.445v-1.816a.445.445,0,0,1,.445-.445H40.028a.445.445,0,0,1,.445.445v1.816A.445.445,0,0,1,40.028,456.5Z" transform="translate(-6.833 -394.921)" fill="#c5d3dd"/>
      <path id="Trazado_824661" data-name="Trazado 824661" d="M12.039,456.06v-1.816a.445.445,0,0,1,.445-.445H7.945a.445.445,0,0,0-.445.445v1.816a.445.445,0,0,0,.445.445h4.539A.445.445,0,0,1,12.039,456.06Z" transform="translate(-6.833 -394.921)" fill="#b6c4cf"/>
      <path id="Trazado_824662" data-name="Trazado 824662" d="M33.2,450.34H1.112A1.114,1.114,0,0,1,0,449.227v-1.816A1.114,1.114,0,0,1,1.112,446.3H7.921a.667.667,0,0,1,0,1.335H1.335V449H32.973v-1.371H11.035a.667.667,0,0,1,0-1.335H33.2a1.114,1.114,0,0,1,1.112,1.112v1.816A1.114,1.114,0,0,1,33.2,450.34Z" transform="translate(0 -388.088)"/>
      <path id="Trazado_824663" data-name="Trazado 824663" d="M417.955,438.489h-8.01a.445.445,0,0,1-.445-.445v-1a3.023,3.023,0,0,1,3.023-3.023h2.408a3.023,3.023,0,0,1,3.023,3.023v1.442Z" transform="translate(-373.056 -376.904)" fill="#c5d3dd"/>
      <path id="Trazado_824664" data-name="Trazado 824664" d="M412.391,438.044v-1a3.023,3.023,0,0,1,2.781-3.013c-.08-.006-.161-.011-.242-.011h-2.408a3.023,3.023,0,0,0-3.023,3.023v1a.445.445,0,0,0,.445.445h2.892A.445.445,0,0,1,412.391,438.044Z" transform="translate(-373.055 -376.904)" fill="#b6c4cf"/>
      <path id="Trazado_824665" data-name="Trazado 824665" d="M411.122,432.324h-8.01A1.114,1.114,0,0,1,402,431.211v-1a3.7,3.7,0,0,1,3.691-3.691H408.1a3.7,3.7,0,0,1,3.691,3.691v1.442A.667.667,0,0,1,411.122,432.324Zm-7.787-1.335h7.12v-.775a2.358,2.358,0,0,0-2.356-2.356h-2.408a2.358,2.358,0,0,0-2.356,2.356Z" transform="translate(-366.224 -370.072)"/>
    </g>
  </g>
</svg>
