<svg xmlns="http://www.w3.org/2000/svg" width="67" height="67" viewBox="0 0 67 67">
  <g id="Grupo_1073782" data-name="Grupo 1073782" transform="translate(-1053 -11448)">
    <g id="Grupo_1073645" data-name="Grupo 1073645" transform="translate(854.5 9387)">
      <g id="Grupo_1073043" data-name="Grupo 1073043" transform="translate(-19.5 -883)">
        <circle id="Elipse_9669" data-name="Elipse 9669" cx="33.5" cy="33.5" r="33.5" transform="translate(218 2944)" fill="#ffce00"/>
      </g>
    </g>
    <g id="estructura" transform="translate(1053.3 11459)">
      <g id="Grupo_1073780" data-name="Grupo 1073780" transform="translate(12.35 0.621)">
        <g id="Grupo_1073776" data-name="Grupo 1073776" transform="translate(5.178)">
          <g id="Grupo_1073775" data-name="Grupo 1073775">
            <g id="Grupo_1073773" data-name="Grupo 1073773" transform="translate(0 0.277)">
              <path id="Trazado_824681" data-name="Trazado 824681" d="M80.289,33.688a1.3,1.3,0,0,1-1.3-1.3V15.673l.866-4a1.3,1.3,0,0,1,1.3-1.3l25.8.267c.717,0,1.9.582,1.9.956V30.586c0,1.06-1.286,2.846-2,2.846l-.786.256H80.289Z" transform="translate(-78.99 -10.378)" fill="#f9f7f8"/>
            </g>
            <path id="Trazado_824682" data-name="Trazado 824682" d="M109.378,8.787v3.675l-2.306.276-28.081.009V8.474a1.3,1.3,0,0,1,1.3-1.3h25.543l2.023.09A1.713,1.713,0,0,1,109.378,8.787Z" transform="translate(-78.99 -7.175)" fill="#8abbd5"/>
            <g id="Grupo_1073774" data-name="Grupo 1073774" transform="translate(26.842 0)">
              <path id="Trazado_824683" data-name="Trazado 824683" d="M394.215,62.76l1.06.75V80.234a1.3,1.3,0,0,1-1.3,1.3H391.62l.274-.162a1.5,1.5,0,0,0,.734-1.287V63.51Z" transform="translate(-391.389 -57.946)" fill="#efedef"/>
              <path id="Trazado_824684" data-name="Trazado 824684" d="M392.835,8.474v4.265h-2.648V8.859a1.7,1.7,0,0,0-.893-1.5l-.346-.187h2.587A1.3,1.3,0,0,1,392.835,8.474Z" transform="translate(-388.949 -7.175)" fill="#6cabca"/>
            </g>
          </g>
        </g>
        <g id="Grupo_1073777" data-name="Grupo 1073777" transform="translate(0 29.827)">
          <path id="Trazado_824685" data-name="Trazado 824685" d="M29.383,352.172v12.019a.4.4,0,0,1-.4.4l-1.212.173H24.3a.78.78,0,0,1-.329-.073c-.087-.038-.145-.261-.213-.329l-4.187-4.2c-.068-.068-.266-.086-.3-.172a.783.783,0,0,1-.072-.33V352a.4.4,0,0,1,.4-.4h8.175l1.212.173A.4.4,0,0,1,29.383,352.172Z" transform="translate(-19.2 -351.6)" fill="#fce459"/>
          <path id="Trazado_824686" data-name="Trazado 824686" d="M117.747,351.6h-1.559a.365.365,0,0,1,.357.4v12.366a.364.364,0,0,1-.357.4h1.559a.4.4,0,0,0,.4-.4V352A.4.4,0,0,0,117.747,351.6Z" transform="translate(-107.789 -351.6)" fill="#f9d608"/>
          <path id="Trazado_824687" data-name="Trazado 824687" d="M24.733,448.827v4.316a.767.767,0,0,1-.233-.16l-4.309-4.309a.775.775,0,0,1-.161-.233h4.317A.387.387,0,0,1,24.733,448.827Z" transform="translate(-19.958 -440.054)" fill="#f9d608"/>
        </g>
        <g id="Grupo_1073778" data-name="Grupo 1073778" transform="translate(15.329 29.827)">
          <path id="Trazado_824688" data-name="Trazado 824688" d="M206.389,352.172v12.019a.4.4,0,0,1-.4.4l-1.212.173H201.31a.78.78,0,0,1-.329-.073c-.087-.038-.145-.261-.213-.329l-4.187-4.2c-.068-.068-.266-.086-.3-.172a.783.783,0,0,1-.072-.33V352a.4.4,0,0,1,.4-.4h8.175l1.212.173A.4.4,0,0,1,206.389,352.172Z" transform="translate(-196.206 -351.6)" fill="#fce459"/>
          <path id="Trazado_824689" data-name="Trazado 824689" d="M294.752,351.6h-1.559a.365.365,0,0,1,.357.4v12.366a.364.364,0,0,1-.357.4h1.559a.4.4,0,0,0,.4-.4V352A.4.4,0,0,0,294.752,351.6Z" transform="translate(-284.794 -351.6)" fill="#f9d608"/>
          <path id="Trazado_824690" data-name="Trazado 824690" d="M201.738,448.827v4.316a.767.767,0,0,1-.233-.16l-4.309-4.309a.775.775,0,0,1-.161-.233h4.317A.387.387,0,0,1,201.738,448.827Z" transform="translate(-196.963 -440.054)" fill="#f9d608"/>
        </g>
        <g id="Grupo_1073779" data-name="Grupo 1073779" transform="translate(30.729 29.827)">
          <path id="Trazado_824691" data-name="Trazado 824691" d="M384.216,352.172v12.019a.4.4,0,0,1-.4.4l-1.212.173h-3.468a.78.78,0,0,1-.329-.073c-.087-.038-.145-.261-.213-.329l-4.187-4.2c-.068-.068-.266-.086-.3-.172a.782.782,0,0,1-.072-.33V352a.4.4,0,0,1,.4-.4h8.175l1.212.173A.4.4,0,0,1,384.216,352.172Z" transform="translate(-374.033 -351.6)" fill="#fce459"/>
          <path id="Trazado_824692" data-name="Trazado 824692" d="M472.579,351.6H471.02a.365.365,0,0,1,.357.4v12.366a.364.364,0,0,1-.357.4h1.559a.4.4,0,0,0,.4-.4V352A.4.4,0,0,0,472.579,351.6Z" transform="translate(-462.621 -351.6)" fill="#f9d608"/>
          <path id="Trazado_824693" data-name="Trazado 824693" d="M379.565,448.827v4.316a.767.767,0,0,1-.233-.16l-4.309-4.309a.775.775,0,0,1-.161-.233h4.317A.387.387,0,0,1,379.565,448.827Z" transform="translate(-374.79 -440.054)" fill="#f9d608"/>
        </g>
      </g>
      <g id="Grupo_1073781" data-name="Grupo 1073781" transform="translate(11.7 0)">
        <path id="Trazado_824694" data-name="Trazado 824694" d="M101.384,24.858H73.553a2.065,2.065,0,0,1-2.063-2.063V2.063A2.065,2.065,0,0,1,73.553,0h3.513a.65.65,0,0,1,0,1.3H73.553a.765.765,0,0,0-.764.764V22.795a.765.765,0,0,0,.764.764h27.832a.765.765,0,0,0,.764-.764v-5.46a.65.65,0,0,1,1.3,0v5.46A2.065,2.065,0,0,1,101.384,24.858Zm1.413-9.9a.65.65,0,0,1-.646-.583L100.738.716A.649.649,0,0,1,101.384,0a2.065,2.065,0,0,1,2.063,2.063V14.3a.65.65,0,0,1-.616.649Z" transform="translate(-66.312 0)"/>
        <path id="Línea_256" data-name="Línea 256" d="M23.337-6.2H-6.851A.65.65,0,0,1-7.5-6.851.65.65,0,0,1-6.851-7.5H23.337a.65.65,0,0,1,.649.649A.65.65,0,0,1,23.337-6.2Z" transform="translate(12.913 13.016)"/>
        <path id="Línea_257" data-name="Línea 257" transform="translate(14.738 3.407)"/>
        <path id="Línea_258" data-name="Línea 258" transform="translate(11.781 3.407)"/>
        <path id="Línea_259" data-name="Línea 259" transform="translate(8.823 3.407)"/>
        <path id="Trazado_824695" data-name="Trazado 824695" d="M173.246,141.845a.648.648,0,0,1-.459-.19L170.131,139a.65.65,0,0,1,0-.919l2.655-2.655a.65.65,0,0,1,.919.919l-2.2,2.2,2.2,2.2a.649.649,0,0,1-.459,1.109Z" transform="translate(-156.237 -123.525)"/>
        <path id="Trazado_824696" data-name="Trazado 824696" d="M297.049,141.845a.649.649,0,0,1-.459-1.109l2.2-2.2-2.2-2.2a.65.65,0,0,1,.919-.919l2.655,2.655a.65.65,0,0,1,0,.919l-2.655,2.655A.648.648,0,0,1,297.049,141.845Z" transform="translate(-271.745 -123.525)"/>
        <path id="Línea_260" data-name="Línea 260" d="M-6.852.411A.648.648,0,0,1-7.073.372a.649.649,0,0,1-.39-.831l2.388-6.613a.649.649,0,0,1,.831-.39.649.649,0,0,1,.39.831L-6.241-.018A.65.65,0,0,1-6.852.411Z" transform="translate(26.815 18.562)"/>
        <path id="Trazado_824697" data-name="Trazado 824697" d="M195.736,446.551a.65.65,0,0,1-.649-.65v-3.666h-3.974a.65.65,0,1,1,0-1.3h4.623a.65.65,0,0,1,.65.65V445.9A.65.65,0,0,1,195.736,446.551Z" transform="translate(-174.982 -402.752)"/>
        <path id="Trazado_824698" data-name="Trazado 824698" d="M199.313,358.562H194.46a1.435,1.435,0,0,1-1.022-.424l-4.309-4.309a1.435,1.435,0,0,1-.423-1.022v-7.659a1.048,1.048,0,0,1,1.047-1.047h9.561a1.048,1.048,0,0,1,1.047,1.047v12.366A1.048,1.048,0,0,1,199.313,358.562ZM190,345.4v7.407a.147.147,0,0,0,.043.1l4.31,4.31a.145.145,0,0,0,.1.043h4.6V345.4Z" transform="translate(-173.376 -314.303)"/>
        <path id="Trazado_824699" data-name="Trazado 824699" d="M372.746,447.47a.65.65,0,0,1-.65-.65v-3.666h-3.974a.65.65,0,0,1,0-1.3h4.623a.649.649,0,0,1,.65.65v4.315A.65.65,0,0,1,372.746,447.47Z" transform="translate(-336.663 -403.591)"/>
        <path id="Trazado_824700" data-name="Trazado 824700" d="M376.319,359.48h-4.854a1.455,1.455,0,0,1-1.021-.423l-4.309-4.309a1.436,1.436,0,0,1-.424-1.022v-7.659a1.049,1.049,0,0,1,1.048-1.047h9.561a1.048,1.048,0,0,1,1.047,1.047v6.473a.649.649,0,1,1-1.3,0v-6.221h-9.057v7.407a.146.146,0,0,0,.044.1l4.309,4.309a.147.147,0,0,0,.1.043h4.6v-2.61a.649.649,0,1,1,1.3,0v2.862A1.048,1.048,0,0,1,376.319,359.48Z" transform="translate(-335.053 -315.141)"/>
        <path id="Trazado_824701" data-name="Trazado 824701" d="M18.727,446.551a.65.65,0,0,1-.649-.65v-3.666H14.1a.65.65,0,0,1,0-1.3h4.623a.65.65,0,0,1,.649.65V445.9A.65.65,0,0,1,18.727,446.551Z" transform="translate(-13.302 -402.752)"/>
        <path id="Trazado_824702" data-name="Trazado 824702" d="M22.308,358.561H17.454a1.455,1.455,0,0,1-1.021-.423l-4.309-4.309a1.436,1.436,0,0,1-.423-1.022v-7.658a1.049,1.049,0,0,1,1.047-1.048h9.561a1.049,1.049,0,0,1,1.048,1.048v2.1a.649.649,0,0,1-1.3,0V345.4H13v7.407a.146.146,0,0,0,.043.1l4.309,4.309a.147.147,0,0,0,.1.043h4.6v-6.983a.649.649,0,0,1,1.3,0v7.235A1.049,1.049,0,0,1,22.308,358.561Z" transform="translate(-11.7 -314.301)"/>
        <path id="Línea_261" data-name="Línea 261" d="M-6.851-.536a.649.649,0,0,1-.649-.65V-6.85A.649.649,0,0,1-6.851-7.5.649.649,0,0,1-6.2-6.85v5.665A.649.649,0,0,1-6.851-.536Z" transform="translate(28.007 31.421)"/>
        <path id="Trazado_824703" data-name="Trazado 824703" d="M102.8,312.279a.65.65,0,0,1-.649-.65v-1.855a.4.4,0,0,0-.4-.4H73.191a.4.4,0,0,0-.4.4v1.8a.649.649,0,1,1-1.3,0v-1.8a1.7,1.7,0,0,1,1.7-1.7h28.555a1.7,1.7,0,0,1,1.7,1.7v1.855A.65.65,0,0,1,102.8,312.279Z" transform="translate(-66.312 -281.394)"/>
        <path id="Trazado_824704" data-name="Trazado 824704" d="M37.8,378.961a.649.649,0,0,1-.459-1.109l1.128-1.128L37.336,375.6a.65.65,0,0,1,.919-.919l1.588,1.588a.649.649,0,0,1,0,.919l-1.588,1.588A.647.647,0,0,1,37.8,378.961Z" transform="translate(-34.942 -342.056)"/>
        <path id="Línea_262" data-name="Línea 262" d="M-4.765-6.2H-6.851A.65.65,0,0,1-7.5-6.851.65.65,0,0,1-6.851-7.5h2.086a.65.65,0,0,1,.649.649A.65.65,0,0,1-4.765-6.2Z" transform="translate(13.521 41.518)"/>
        <path id="Trazado_824705" data-name="Trazado 824705" d="M215.069,378.961a.649.649,0,0,1-.459-1.109l1.128-1.128-1.128-1.128a.65.65,0,0,1,.919-.919l1.588,1.588a.649.649,0,0,1,0,.919l-1.588,1.588A.647.647,0,0,1,215.069,378.961Z" transform="translate(-196.864 -342.056)"/>
        <path id="Línea_263" data-name="Línea 263" d="M-4.765-6.2H-6.851A.65.65,0,0,1-7.5-6.851.65.65,0,0,1-6.851-7.5h2.086a.65.65,0,0,1,.649.649A.65.65,0,0,1-4.765-6.2Z" transform="translate(28.873 41.518)"/>
        <path id="Trazado_824706" data-name="Trazado 824706" d="M392.078,378.961a.649.649,0,0,1-.459-1.109l1.128-1.128-1.128-1.128a.65.65,0,1,1,.919-.919l1.588,1.588a.649.649,0,0,1,0,.919l-1.588,1.588A.647.647,0,0,1,392.078,378.961Z" transform="translate(-358.544 -342.056)"/>
        <path id="Línea_264" data-name="Línea 264" d="M-4.765-6.2H-6.851A.65.65,0,0,1-7.5-6.851.65.65,0,0,1-6.851-7.5h2.086a.65.65,0,0,1,.649.649A.65.65,0,0,1-4.765-6.2Z" transform="translate(44.202 41.518)"/>
      </g>
    </g>
  </g>
</svg>
