<svg xmlns="http://www.w3.org/2000/svg" xmlns:xlink="http://www.w3.org/1999/xlink" width="295" height="332" viewBox="0 0 295 332">
  <defs>
    <clipPath id="clip-path">
      <rect id="Rect치ngulo_382600" data-name="Rect치ngulo 382600" width="295" height="332" rx="12" fill="#273a89"/>
    </clipPath>
    <clipPath id="clip-path-2">
      <rect id="Rect치ngulo_382599" data-name="Rect치ngulo 382599" width="97" height="33.073" fill="#3ee2a8"/>
    </clipPath>
  </defs>
  <g id="Grupo_142" data-name="Grupo 142" clip-path="url(#clip-path)">
    <g id="Grupo_1073398" data-name="Grupo 1073398" transform="translate(209.5 -161.291)">
      <g id="Grupo_1073397" data-name="Grupo 1073397" transform="translate(0 177.722)">
        <g id="Grupo_1073396" data-name="Grupo 1073396" clip-path="url(#clip-path-2)">
          <path id="Trazado_822594" data-name="Trazado 822594" d="M97,10.738l-1.624,1.911a9.972,9.972,0,0,1-15.715,0l-.977-1.15a9.975,9.975,0,0,0-15.715,0,9.972,9.972,0,0,1-15.715,0l-.089-.1a9.975,9.975,0,0,0-15.715,0l-.8.941a9.972,9.972,0,0,1-15.715,0l-.62-.732C10.415,7.012,4.342,6.562,0,10.224v5.763c4.342-3.665,10.415-3.215,14.317,1.376l.62.732a9.972,9.972,0,0,0,15.715,0l.8-.941a9.972,9.972,0,0,1,15.715,0l.089.1a9.972,9.972,0,0,0,15.715,0,9.972,9.972,0,0,1,15.715,0l.977,1.15a9.972,9.972,0,0,0,15.715,0L97,16.5Z" transform="translate(0 10.832)" fill="#3ee2a8"/>
          <path id="Trazado_822595" data-name="Trazado 822595" d="M97,3.175,95.376,5.086a9.972,9.972,0,0,1-15.715,0l-.977-1.15a9.972,9.972,0,0,0-15.715,0,9.972,9.972,0,0,1-15.715,0l-.089-.1a9.972,9.972,0,0,0-15.715,0l-.8.941a9.972,9.972,0,0,1-15.715,0l-.62-.732C10.415-.551,4.342-1,0,2.661V8.422C4.342,4.76,10.415,5.21,14.317,9.8l.62.732a9.972,9.972,0,0,0,15.715,0l.8-.941a9.972,9.972,0,0,1,15.715,0l.089.1a9.972,9.972,0,0,0,15.715,0,9.972,9.972,0,0,1,15.715,0l.977,1.15a9.972,9.972,0,0,0,15.715,0L97,8.936Z" transform="translate(0 0)" fill="#3ee2a8"/>
        </g>
      </g>
    </g>
  </g>
</svg>
