<svg xmlns="http://www.w3.org/2000/svg" width="67" height="67" viewBox="0 0 67 67">
  <g id="Grupo_1073772" data-name="Grupo 1073772" transform="translate(-214 -11448)">
    <g id="Grupo_1073444" data-name="Grupo 1073444" transform="translate(15.5 9387)">
      <g id="Grupo_1073043" data-name="Grupo 1073043" transform="translate(-19.5 -883)">
        <circle id="Elipse_9669" data-name="Elipse 9669" cx="33.5" cy="33.5" r="33.5" transform="translate(218 2944)" fill="#ffce00"/>
      </g>
    </g>
    <g id="estrategia-digital" transform="translate(225 11459)">
      <g id="Grupo_1073770" data-name="Grupo 1073770" transform="translate(1.691 1.691)">
        <g id="Grupo_1073761" data-name="Grupo 1073761" transform="translate(23.155 0)">
          <path id="Trazado_824665" data-name="Trazado 824665" d="M53.819,10.988v4.148l-1.756.56a10.045,10.045,0,0,1-.857,2.088l.844,1.632-2.938,2.932-1.632-.837a10.045,10.045,0,0,1-2.088.857l-.56,1.756H40.682l-.56-1.756c-.048-.014-.1-.035-.145-.048.111-.235.221-.477.318-.719a12.749,12.749,0,0,0,.622-1.881,6.99,6.99,0,0,0,1.839.256,6.914,6.914,0,0,0,0-13.828A6.845,6.845,0,0,0,38.5,7.628,13.811,13.811,0,0,0,35.49,4.683L36.4,3.77l1.632.844a10.045,10.045,0,0,1,2.088-.857L40.682,2h4.148l.56,1.756a10.046,10.046,0,0,1,2.088.857l1.632-.844,2.938,2.938L51.206,8.34a10.046,10.046,0,0,1,.857,2.088Z" transform="translate(-35.49 -2)" fill="#ffc729"/>
        </g>
        <g id="Grupo_1073762" data-name="Grupo 1073762" transform="translate(26.163 4.148)">
          <path id="Trazado_824666" data-name="Trazado 824666" d="M44.1,8a6.914,6.914,0,1,1,0,13.828,6.99,6.99,0,0,1-1.839-.256,13.65,13.65,0,0,0,.429-2.759,4.148,4.148,0,1,0,1.41-8.048,4.115,4.115,0,0,0-2.793,1.092A14.182,14.182,0,0,0,39.84,9.48,6.845,6.845,0,0,1,44.1,8Z" transform="translate(-39.84 -8)" fill="#fcd770"/>
        </g>
        <g id="Grupo_1073763" data-name="Grupo 1073763" transform="translate(7.605 35.953)">
          <path id="Trazado_824667" data-name="Trazado 824667" d="M13,54H26.828A5.53,5.53,0,0,1,21.3,59.531H18.531A5.53,5.53,0,0,1,13,54Z" transform="translate(-13 -54)" fill="#aab2bd"/>
        </g>
        <g id="Grupo_1073764" data-name="Grupo 1073764" transform="translate(5.531 31.805)">
          <path id="Trazado_824668" data-name="Trazado 824668" d="M25.9,48h.691a1.387,1.387,0,0,1,1.383,1.383v1.383a1.387,1.387,0,0,1-1.383,1.383H11.383A1.387,1.387,0,0,1,10,50.766V49.383A1.387,1.387,0,0,1,11.383,48H25.9Z" transform="translate(-10 -48)" fill="#ccd1d9"/>
        </g>
        <g id="Grupo_1073765" data-name="Grupo 1073765">
          <path id="Trazado_824669" data-name="Trazado 824669" d="M29.629,10.006a14.182,14.182,0,0,0-1.466-2.378,13.811,13.811,0,0,0-3.008-2.945A14.09,14.09,0,0,0,16.858,2h-.678A14.178,14.178,0,0,0,6.155,26.206l.519.519A10.022,10.022,0,0,1,9.605,33.8H23.434a10.022,10.022,0,0,1,2.932-7.08l.519-.519a14.367,14.367,0,0,0,2.759-3.886c.111-.235.221-.477.318-.719a12.748,12.748,0,0,0,.622-1.881,13.65,13.65,0,0,0,.429-2.759c.021-.256.028-.519.028-.781a14.179,14.179,0,0,0-1.41-6.174Z" transform="translate(-2 -2)" fill="#ffeaa7"/>
        </g>
        <g id="Grupo_1073766" data-name="Grupo 1073766" transform="translate(8.297 17.977)">
          <path id="Trazado_824670" data-name="Trazado 824670" d="M25.063,28h-9.68L14,41.828H26.445Z" transform="translate(-14 -28)" fill="#d3a06c"/>
        </g>
        <g id="Grupo_1073767" data-name="Grupo 1073767" transform="translate(7.605 15.211)">
          <path id="Trazado_824671" data-name="Trazado 824671" d="M25.445,24a1.387,1.387,0,0,1,1.383,1.383,1.393,1.393,0,0,1-1.383,1.383H14.383A1.387,1.387,0,0,1,13,25.383,1.393,1.393,0,0,1,14.383,24H25.445Z" transform="translate(-13 -24)" fill="#b27946"/>
        </g>
        <g id="Grupo_1073768" data-name="Grupo 1073768" transform="translate(7.605 11.063)">
          <path id="Trazado_824672" data-name="Trazado 824672" d="M26.828,18l-2.074,4.148h-9.68L13,18Z" transform="translate(-13 -18)" fill="#d3a06c"/>
        </g>
        <g id="Grupo_1073769" data-name="Grupo 1073769" transform="translate(7.605 6.914)">
          <path id="Trazado_824673" data-name="Trazado 824673" d="M26.828,12v4.148H13V12h2.766v1.383h2.766V12H21.3v1.383h2.766V12Z" transform="translate(-13 -12)" fill="#d3a06c"/>
        </g>
      </g>
      <g id="Grupo_1073771" data-name="Grupo 1073771" transform="translate(1 1)">
        <path id="Trazado_824674" data-name="Trazado 824674" d="M22,39h1.383v1.383H22Z" transform="translate(-7.48 -12.727)"/>
        <path id="Trazado_824675" data-name="Trazado 824675" d="M22,43h1.383v1.383H22Z" transform="translate(-7.48 -13.961)"/>
        <path id="Trazado_824676" data-name="Trazado 824676" d="M22,35h1.383v1.383H22Z" transform="translate(-7.48 -11.492)"/>
        <path id="Trazado_824677" data-name="Trazado 824677" d="M22,31h1.383v1.383H22Z" transform="translate(-7.48 -10.258)"/>
        <path id="Trazado_824678" data-name="Trazado 824678" d="M43.867,15.332V10.175l-1.89-.606a10.327,10.327,0,0,0-.635-1.541l.907-1.762L38.6,2.619l-1.762.907A10.326,10.326,0,0,0,35.3,2.891L34.692,1H29.534l-.606,1.89a10.326,10.326,0,0,0-1.541.635l-1.762-.907-.864.864A14.785,14.785,0,0,0,16.552,1h-.683A14.87,14.87,0,0,0,5.354,26.384l.52.52a9.246,9.246,0,0,1,2.7,5.9,2.074,2.074,0,0,0-2.04,2.071v1.383a2.077,2.077,0,0,0,2.074,2.074h.041a6.23,6.23,0,0,0,6.182,5.531h2.766a6.23,6.23,0,0,0,6.182-5.531h.041a2.077,2.077,0,0,0,2.074-2.074V34.879a2.075,2.075,0,0,0-2.041-2.071,9.242,9.242,0,0,1,2.7-5.9l.519-.52A14.917,14.917,0,0,0,29.243,23.6l.292.911h5.157l.606-1.89a10.326,10.326,0,0,0,1.541-.635l1.762.907,3.646-3.646-.907-1.762a10.339,10.339,0,0,0,.635-1.541ZM15.52,10.68V9.3H16.9V10.68h4.148V9.3h1.383v2.766H9.988V9.3h1.383V10.68Zm6.487,2.766-1.383,2.766H11.8l-1.383-2.766ZM10.944,17.594h10.8a.691.691,0,1,1,0,1.383H10.68a.691.691,0,1,1,0-1.383ZM12,20.359h8.428L21.67,32.8H10.752Zm5.6,22.125H14.828a4.844,4.844,0,0,1-4.785-4.148H22.378A4.844,4.844,0,0,1,17.594,42.484Zm6.914-7.605v1.383a.692.692,0,0,1-.691.691H8.605a.692.692,0,0,1-.691-.691V34.879a.692.692,0,0,1,.691-.691H23.816A.692.692,0,0,1,24.508,34.879Zm1.581-9.473-.519.52a10.633,10.633,0,0,0-2.731,4.668L21.814,20.352a2.071,2.071,0,0,0,.335-4.1l1.668-3.335v-5H19.668V9.3H18.285V7.914H14.137V9.3H12.754V7.914H8.605v5l1.668,3.335a2.07,2.07,0,0,0,.335,4.1L9.584,30.594a10.639,10.639,0,0,0-2.731-4.668l-.52-.52A13.487,13.487,0,0,1,15.869,2.383h.683a13.487,13.487,0,0,1,9.537,23.023ZM30.168,9.914a3.451,3.451,0,1,1,1.946,6.3,3.379,3.379,0,0,1-.7-.083c0-.086.012-.171.012-.259a14.764,14.764,0,0,0-1.254-5.956Zm1.156,7.61a4.741,4.741,0,0,0,.79.071,4.84,4.84,0,1,0-2.569-8.937q-.336-.6-.725-1.173a6.138,6.138,0,0,1,3.293-.952,6.223,6.223,0,0,1,0,12.445,6.08,6.08,0,0,1-1-.094c.091-.447.159-.9.209-1.359Zm9.532-2.678-.1.357a8.9,8.9,0,0,1-.8,1.932l-.182.324.781,1.518-2.22,2.22-1.518-.781L36.5,20.6a8.929,8.929,0,0,1-1.933.8l-.357.1-.521,1.629h-3.14l-.4-1.241a14.643,14.643,0,0,0,.631-1.662,7.475,7.475,0,0,0,1.336.138,7.605,7.605,0,0,0,0-15.211,7.506,7.506,0,0,0-4.129,1.226,15,15,0,0,0-2.1-2.062h0l1.518.781.324-.181a8.929,8.929,0,0,1,1.933-.8l.357-.1.521-1.629h3.14L34.2,4.012l.357.1a8.964,8.964,0,0,1,1.933.8l.324.181,1.518-.781,2.22,2.22-.781,1.518.181.324a8.929,8.929,0,0,1,.8,1.933l.1.357,1.629.521v3.14Z" transform="translate(-1 -1)"/>
        <path id="Trazado_824679" data-name="Trazado 824679" d="M6.427,21.034,5.05,20.91c-.033.364-.05.736-.05,1.1a12.088,12.088,0,0,0,2.934,7.9l1.047-.9a10.7,10.7,0,0,1-2.6-7C6.383,21.687,6.4,21.358,6.427,21.034Z" transform="translate(-2.234 -7.144)"/>
        <path id="Trazado_824680" data-name="Trazado 824680" d="M7.119,17.128l-1.3-.463A11.953,11.953,0,0,0,5.4,18.132l1.351.294A10.6,10.6,0,0,1,7.119,17.128Z" transform="translate(-2.357 -5.834)"/>
      </g>
    </g>
  </g>
</svg>
