<svg xmlns="http://www.w3.org/2000/svg" xmlns:xlink="http://www.w3.org/1999/xlink" width="292.722" height="219.645" viewBox="0 0 292.722 219.645">
  <defs>
    <clipPath id="clip-path">
      <path id="Trazado_818456" data-name="Trazado 818456" d="M17.313,80.174A69.236,69.236,0,1,0,86.55,10.939,69.237,69.237,0,0,0,17.313,80.174" transform="translate(-17.313 -10.939)" fill="#add3fd"/>
    </clipPath>
  </defs>
  <g id="Grupo_1073443" data-name="Grupo 1073443" transform="translate(-182.278 -1564.534)">
    <g id="Grupo_1073362" data-name="Grupo 1073362" transform="translate(182.278 1564.534)">
      <g id="Grupo_1073235" data-name="Grupo 1073235" transform="translate(0 0)">
        <path id="Trazado_821758" data-name="Trazado 821758" d="M213.637,0H9.849C4.409,0,0,4.7,0,10.492v198.66c0,5.795,4.409,10.492,9.849,10.492H213.637c5.439,0,9.849-4.7,9.849-10.492V10.492C223.486,4.7,219.076,0,213.637,0Z" transform="translate(0 0)" fill="#273a89"/>
        <g id="Grupo_1073236" data-name="Grupo 1073236" transform="translate(154.249 0.001)">
          <g id="Grupo_1071496" data-name="Grupo 1071496" clip-path="url(#clip-path)">
            <path id="Trazado_818450" data-name="Trazado 818450" d="M153.147,33.779,127.133,7.764,102.642,32.257,78.011,7.626,52.273,33.364,26.813,7.9l-23,23L0,27.09,26.813.277l25.46,25.459L78.011,0l24.631,24.629L127.133.138l26.015,26.015L177.531,1.769l3.815,3.812Z" transform="translate(-27.101 -17.123)" fill="#add3fd"/>
            <path id="Trazado_818451" data-name="Trazado 818451" d="M153.147,50.574,127.133,24.561l-24.491,24.49L78.011,24.422,52.273,50.159,26.813,24.7l-23,23L0,43.885,26.813,17.072l25.46,25.46L78.011,16.8l24.631,24.631,24.491-24.491,26.015,26.013,24.383-24.383,3.815,3.812Z" transform="translate(-27.101 -7.628)" fill="#add3fd"/>
            <path id="Trazado_818452" data-name="Trazado 818452" d="M153.147,67.369,127.133,41.356,102.642,65.848,78.011,41.218,52.273,66.954l-25.46-25.46-23,23L0,60.68,26.813,33.867l25.46,25.46L78.011,33.59l24.631,24.631L127.133,33.73l26.015,26.013,24.383-24.383,3.815,3.813Z" transform="translate(-27.101 1.867)" fill="#add3fd"/>
            <path id="Trazado_818453" data-name="Trazado 818453" d="M153.147,84.165,127.133,58.151,102.642,82.642,78.011,58.013,52.273,83.75,26.813,58.288l-23,23L0,77.476,26.813,50.664l25.46,25.46L78.011,50.387l24.631,24.631,24.491-24.493,26.015,26.015,24.383-24.385,3.815,3.813Z" transform="translate(-27.101 11.363)" fill="#add3fd"/>
            <path id="Trazado_818454" data-name="Trazado 818454" d="M153.147,100.96,127.133,74.946,102.642,99.437,78.011,74.808,52.273,100.546l-25.46-25.46-23,23L0,94.273,26.813,67.459l25.46,25.46L78.011,67.182l24.631,24.631,24.491-24.491,26.015,26.015,24.383-24.385,3.815,3.813Z" transform="translate(-27.101 20.858)" fill="#add3fd"/>
            <path id="Trazado_818455" data-name="Trazado 818455" d="M153.147,117.756,127.133,91.743l-24.491,24.491L78.011,91.6,52.273,117.341,26.813,91.88l-23,23L0,111.067,26.813,84.254l25.46,25.46L78.011,83.977l24.631,24.631,24.491-24.491,26.015,26.013,24.383-24.383,3.815,3.813Z" transform="translate(-27.101 30.353)" fill="#add3fd"/>
          </g>
        </g>
      </g>
    </g>
    <g id="datos_1_" data-name="datos (1)" transform="translate(206.529 1599.985)">
      <path id="Trazado_823542" data-name="Trazado 823542" d="M16.067,0H132.624A11.656,11.656,0,0,1,144.28,11.656V104.9a11.656,11.656,0,0,1-11.656,11.656H16.067A11.656,11.656,0,0,1,4.411,104.9V11.656A11.654,11.654,0,0,1,16.067,0Z" fill="#87ced9"/>
      <g id="Grupo_1073439" data-name="Grupo 1073439" transform="translate(13.153 8.742)">
        <rect id="Rectángulo_382675" data-name="Rectángulo 382675" width="5.828" height="5.828" fill="#4398d1"/>
        <rect id="Rectángulo_382676" data-name="Rectángulo 382676" width="5.828" height="5.828" transform="translate(11.656)" fill="#4398d1"/>
        <rect id="Rectángulo_382677" data-name="Rectángulo 382677" width="5.828" height="5.828" transform="translate(23.312)" fill="#4398d1"/>
        <path id="Trazado_823543" data-name="Trazado 823543" d="M69.033,70.621H185.59a11.656,11.656,0,0,1,11.656,11.656v93.246a11.656,11.656,0,0,1-11.656,11.656H69.033a11.656,11.656,0,0,1-11.656-11.656V82.277A11.654,11.654,0,0,1,69.033,70.621Z" transform="translate(-48.635 -56.051)" fill="#4398d1"/>
      </g>
      <path id="Trazado_823544" data-name="Trazado 823544" d="M237.967,70.621H224.122c-20.884,66.493-60.875,100.1-88.56,116.557h102.4a11.656,11.656,0,0,0,11.656-11.656V82.277A11.656,11.656,0,0,0,237.967,70.621Z" transform="translate(-87.859 -47.309)" fill="#3f8fc4"/>
      <g id="Grupo_1073440" data-name="Grupo 1073440" transform="translate(30.636 32.053)">
        <rect id="Rectángulo_382678" data-name="Rectángulo 382678" width="5.828" height="5.828" fill="#87ced9"/>
        <rect id="Rectángulo_382679" data-name="Rectángulo 382679" width="5.828" height="5.828" transform="translate(11.656)" fill="#87ced9"/>
        <rect id="Rectángulo_382680" data-name="Rectángulo 382680" width="5.828" height="5.828" transform="translate(23.312)" fill="#87ced9"/>
      </g>
      <g id="Grupo_1073441" data-name="Grupo 1073441" transform="translate(30.636 43.709)">
        <rect id="Rectángulo_382681" data-name="Rectángulo 382681" width="122.386" height="5.828" transform="translate(0 72.848)" fill="#3685ba"/>
        <rect id="Rectángulo_382682" data-name="Rectángulo 382682" width="5.828" height="17.484" transform="translate(5.828 49.537)" fill="#3685ba"/>
        <rect id="Rectángulo_382683" data-name="Rectángulo 382683" width="5.828" height="34.967" transform="translate(17.483 32.053)" fill="#3685ba"/>
        <rect id="Rectángulo_382684" data-name="Rectángulo 382684" width="5.828" height="26.225" transform="translate(29.139 40.795)" fill="#3685ba"/>
        <rect id="Rectángulo_382685" data-name="Rectángulo 382685" width="5.828" height="46.623" transform="translate(40.795 20.398)" fill="#3685ba"/>
        <rect id="Rectángulo_382686" data-name="Rectángulo 382686" width="5.828" height="52.451" transform="translate(52.451 14.57)" fill="#3685ba"/>
        <rect id="Rectángulo_382687" data-name="Rectángulo 382687" width="5.828" height="20.398" transform="translate(64.107 17.483)" fill="#3685ba"/>
        <rect id="Rectángulo_382688" data-name="Rectángulo 382688" width="5.828" height="32.053" transform="translate(75.762 5.828)" fill="#3685ba"/>
        <rect id="Rectángulo_382689" data-name="Rectángulo 382689" width="5.828" height="37.881" transform="translate(87.418)" fill="#3685ba"/>
        <rect id="Rectángulo_382690" data-name="Rectángulo 382690" width="5.828" height="55.365" transform="translate(99.074 11.656)" fill="#3685ba"/>
        <rect id="Rectángulo_382691" data-name="Rectángulo 382691" width="5.828" height="43.709" transform="translate(110.73 23.311)" fill="#3685ba"/>
      </g>
      <rect id="Rectángulo_382692" data-name="Rectángulo 382692" width="12.364" height="49.452" transform="translate(170.531 160.287) rotate(135)" fill="#fdb62f"/>
      <rect id="Rectángulo_382693" data-name="Rectángulo 382693" width="12.364" height="16.484" transform="translate(147.197 136.965) rotate(135)" fill="#fa962a"/>
      <circle id="Elipse_9754" data-name="Elipse 9754" cx="37.881" cy="37.881" r="37.881" transform="translate(71.431 72.848)" fill="#fdb62f"/>
      <circle id="Elipse_9755" data-name="Elipse 9755" cx="26.225" cy="26.225" r="26.225" transform="translate(83.087 84.504)" fill="#87ced9"/>
      <g id="Grupo_1073442" data-name="Grupo 1073442" transform="translate(83.087 84.504)">
        <path id="Trazado_823545" data-name="Trazado 823545" d="M244.8,353.1a25.884,25.884,0,0,0,2.087,5.828h46.932A25.906,25.906,0,0,0,295.9,353.1Z" transform="translate(-244.122 -321.049)" fill="#4398d1"/>
        <path id="Trazado_823546" data-name="Trazado 823546" d="M319.2,282.224V256.171a24.69,24.69,0,0,0-5.828,0v26.053Z" transform="translate(-290.065 -255.998)" fill="#4398d1"/>
        <path id="Trazado_823547" data-name="Trazado 823547" d="M283.894,285.318v-24.7a26.09,26.09,0,0,0-5.828,2.9v21.8Z" transform="translate(-266.41 -259.092)" fill="#4398d1"/>
        <path id="Trazado_823548" data-name="Trazado 823548" d="M354.515,285.318v-21.8a26.085,26.085,0,0,0-5.828-2.9v24.7Z" transform="translate(-313.72 -259.092)" fill="#4398d1"/>
        <path id="Trazado_823549" data-name="Trazado 823549" d="M248.584,285.564a26.1,26.1,0,0,0-5.828,16.467h5.828Z" transform="translate(-242.756 -275.805)" fill="#4398d1"/>
        <path id="Trazado_823550" data-name="Trazado 823550" d="M384,302.03h5.828A26.1,26.1,0,0,0,384,285.563Z" transform="translate(-337.374 -275.804)" fill="#4398d1"/>
      </g>
    </g>
  </g>
</svg>
