<svg xmlns="http://www.w3.org/2000/svg" width="67" height="67" viewBox="0 0 67 67">
  <g id="Grupo_1074145" data-name="Grupo 1074145" transform="translate(-214 -11164)">
    <g id="Grupo_1073945" data-name="Grupo 1073945" transform="translate(0 -284)">
      <g id="Grupo_1073444" data-name="Grupo 1073444" transform="translate(15.5 9387)">
        <g id="Grupo_1073043" data-name="Grupo 1073043" transform="translate(-19.5 -883)">
          <circle id="Elipse_9669" data-name="Elipse 9669" cx="33.5" cy="33.5" r="33.5" transform="translate(218 2944)" fill="#ffce00"/>
        </g>
      </g>
    </g>
    <g id="avatar" transform="translate(226.5 11174)">
      <path id="Trazado_825905" data-name="Trazado 825905" d="M152.289,256h11.934v11.934H152.289Zm0,0" transform="translate(-137.666 -232.181)" fill="#ecbd83"/>
      <path id="Trazado_825906" data-name="Trazado 825906" d="M43.915,346.805l-6.827-2.626-9.7,2.237-9.7-2.237-6.827,2.626A4.476,4.476,0,0,0,8,350.982V359.1H46.784v-8.114A4.476,4.476,0,0,0,43.915,346.805Zm0,0" transform="translate(-6.802 -312.156)" fill="#dbeaff"/>
      <path id="Trazado_825907" data-name="Trazado 825907" d="M152.289,260.352a11.832,11.832,0,0,0,11.934,0V256H152.289Zm0,0" transform="translate(-137.666 -232.181)" fill="#e2a975"/>
      <path id="Trazado_825908" data-name="Trazado 825908" d="M103.266,70.326a2.22,2.22,0,0,0-.746.137v-6.85H83.128v6.85a2.238,2.238,0,1,0,0,4.2v.883a9.7,9.7,0,0,0,19.392,0v-.883a2.234,2.234,0,1,0,.746-4.338Zm0,0" transform="translate(-72.234 -57.695)" fill="#f6d190"/>
      <path id="Trazado_825909" data-name="Trazado 825909" d="M102.523,63.613H83.131v6.85a2.067,2.067,0,0,0-1.956.259,2.213,2.213,0,0,0,1.956,3.942v.883a9.633,9.633,0,0,0,11.188,9.57,9.69,9.69,0,0,1-8.2-9.57V72.111a2.918,2.918,0,0,1,.542-1.713,8.472,8.472,0,0,0,.93-1.667.742.742,0,0,1,.962-.411,16.006,16.006,0,0,0,6.034,1.238,14.1,14.1,0,0,0,6.765-1.737,2.225,2.225,0,0,0,1.054-1.258C102.441,66.543,102.523,63.613,102.523,63.613Zm0,0" transform="translate(-72.237 -57.695)" fill="#ecbd83"/>
      <path id="Trazado_825910" data-name="Trazado 825910" d="M277.752,33.973a2.231,2.231,0,0,0-.6.082,2.308,2.308,0,0,1-2.535-1.066c-2.083-3.391-2.085-9.458-2.085-9.458h2.238a3.729,3.729,0,0,1,3.729,3.729v6.85A2.216,2.216,0,0,0,277.752,33.973Zm0,0" transform="translate(-246.721 -21.342)" fill="#966a5b"/>
      <path id="Trazado_825911" data-name="Trazado 825911" d="M178.1,207.9a.75.75,0,0,0-.727.933,3.73,3.73,0,0,0,7.223,0,.75.75,0,0,0-.727-.933Zm0,0" transform="translate(-160.395 -188.558)" fill="#fff"/>
      <path id="Trazado_825912" data-name="Trazado 825912" d="M118.178,460.878h-5.221a.746.746,0,0,1-.746-.746v-2.984a.746.746,0,0,1,.746-.746h5.221a.746.746,0,0,1,.746.746v2.984A.746.746,0,0,1,118.178,460.878Zm0,0" transform="translate(-101.317 -413.937)" fill="#ffe09f"/>
      <path id="Trazado_825913" data-name="Trazado 825913" d="M96.925,33.973a2.231,2.231,0,0,1,.6.082c.969.271,1.778-.459,2.3-1.316,2.083-3.391,2.316-9.208,2.316-9.208H99.909a3.729,3.729,0,0,0-3.729,3.729v6.85A2.216,2.216,0,0,1,96.925,33.973Zm0,0" transform="translate(-86.777 -21.342)" fill="#785353"/>
      <path id="Trazado_825914" data-name="Trazado 825914" d="M155.718,7.5h-9.156a2.264,2.264,0,0,0-2.289,2.237l.085,1.745a3.712,3.712,0,0,0,2.372,3.27,16.118,16.118,0,0,0,14.736-1.279,1.489,1.489,0,0,0,.59-1.845A6.868,6.868,0,0,0,155.718,7.5Zm0,0" transform="translate(-130.396 -6.802)" fill="#966a5b"/>
      <path id="Trazado_825915" data-name="Trazado 825915" d="M8.758,390.59A4.465,4.465,0,0,0,8,393.074v8.114h6.713v-4.508a2.984,2.984,0,0,0-1.152-2.355Zm0,0" transform="translate(-6.802 -354.248)" fill="#c3ddff"/>
      <path id="Trazado_825916" data-name="Trazado 825916" d="M358.65,390.59a4.465,4.465,0,0,1,.758,2.484v8.114H352.7v-4.508a2.984,2.984,0,0,1,1.152-2.355Zm0,0" transform="translate(-319.426 -354.248)" fill="#c3ddff"/>
      <path id="Trazado_825917" data-name="Trazado 825917" d="M118.178,482.691h-5.221a.746.746,0,0,1-.746-.746v-1.492h6.713v1.492A.746.746,0,0,1,118.178,482.691Zm0,0" transform="translate(-101.317 -435.75)" fill="#f6d190"/>
      <path id="Trazado_825918" data-name="Trazado 825918" d="M114.015,315.411l-1.8,2.406,4.912,4.912a1.491,1.491,0,0,0,2.109,0l2.675-2.674-6.867-4.807A.745.745,0,0,0,114.015,315.411Zm0,0" transform="translate(-101.317 -285.794)" fill="#c3ddff"/>
      <path id="Trazado_825919" data-name="Trazado 825919" d="M224.313,315.411a.745.745,0,0,0-1.024-.164l-6.867,4.807,2.674,2.674a1.491,1.491,0,0,0,2.109,0l4.912-4.912Zm0,0" transform="translate(-195.832 -285.794)" fill="#c3ddff"/>
      <path id="Trazado_825920" data-name="Trazado 825920" d="M161.522,154.45a.7.7,0,0,0,.7-.7v-.746a.7.7,0,0,0-1.4,0v.746A.7.7,0,0,0,161.522,154.45Zm0,0" transform="translate(-145.407 -138.137)"/>
      <path id="Trazado_825921" data-name="Trazado 825921" d="M257.713,154.45a.7.7,0,0,0,.7-.7v-.746a.7.7,0,0,0-1.4,0v.746A.7.7,0,0,0,257.713,154.45Zm0,0" transform="translate(-232.649 -138.137)"/>
      <path id="Trazado_825922" data-name="Trazado 825922" d="M168.84,201.1a4.427,4.427,0,1,0,8.854,0,.7.7,0,0,0-.7-.7h-7.458A.7.7,0,0,0,168.84,201.1Zm7.377.7a3.032,3.032,0,0,1-5.9,0Zm0,0" transform="translate(-152.677 -181.756)"/>
      <path id="Trazado_825923" data-name="Trazado 825923" d="M37.364,34l-6.64-2.554L29.04,29.2a1.436,1.436,0,0,0-1.785-.431V25.821a10.376,10.376,0,0,0,3.729-7.969V17.8h.048a2.934,2.934,0,0,0,1.444-5.49V7.41A7.419,7.419,0,0,0,25.065,0h-8.95a2.937,2.937,0,0,0-2.554,1.492h-.429A4.432,4.432,0,0,0,8.7,5.919v6.4a2.934,2.934,0,0,0,1.444,5.49H10.2v.048a10.376,10.376,0,0,0,3.729,7.969v2.946a1.436,1.436,0,0,0-1.785.431l-1.684,2.245L3.816,34A5.2,5.2,0,0,0,.5,38.826V46.94a.7.7,0,0,0,1.4,0V38.826a3.739,3.739,0,0,1,.239-1.312L6.3,40.637a2.3,2.3,0,0,1,.914,1.828V46.94a.7.7,0,0,0,1.4,0V42.465A3.7,3.7,0,0,0,7.136,39.52L2.86,36.313A3.759,3.759,0,0,1,4.317,35.3l6.4-2.463,4.591,4.591a2.19,2.19,0,0,0,3.1,0l1.483-1.483V46.94a.7.7,0,1,0,1.4,0V35.945l1.483,1.483a2.19,2.19,0,0,0,3.1,0L27.8,35.5a.7.7,0,0,0-.987-.987l-1.928,1.929a.795.795,0,0,1-1.123,0l-2.086-2.087,6.186-4.33a.047.047,0,0,1,.066.011l1.441,1.922-.318.318a.7.7,0,1,0,.987.987l.425-.425,6.4,2.463a3.762,3.762,0,0,1,1.457,1.013L34.044,39.52a3.7,3.7,0,0,0-1.473,2.945V46.94a.7.7,0,0,0,1.4,0V42.465a2.3,2.3,0,0,1,.914-1.829l4.164-3.123a3.741,3.741,0,0,1,.239,1.312V46.94a.7.7,0,0,0,1.4,0V38.826A5.2,5.2,0,0,0,37.364,34ZM17.422,36.442a.795.795,0,0,1-1.123,0l-4.484-4.484,1.441-1.922a.048.048,0,0,1,.066-.011l6.186,4.33Zm8.437-6.721L20.59,33.409l-5.269-3.688V26.808a10.373,10.373,0,0,0,10.538,0ZM20.5,26.85a9.072,9.072,0,0,1-8.909-9.112v-.749a.722.722,0,0,0-.138-.437.7.7,0,0,0-.793-.239,1.52,1.52,0,0,1-.512.1,1.54,1.54,0,1,1,0-3.08,1.512,1.512,0,0,1,.512.1.707.707,0,0,0,.545-.033,6.587,6.587,0,0,0,2.947-3.159.7.7,0,1,0-1.3-.518,5.226,5.226,0,0,1-2.04,2.3,2.768,2.768,0,0,0-.668-.084H10.1V5.919a3.031,3.031,0,0,1,3.032-3.032h.049c0,.016,0,.032,0,.048a.7.7,0,0,0,.764.695.714.714,0,0,0,.632-.712A1.541,1.541,0,0,1,16.115,1.4h8.95A6.015,6.015,0,0,1,31.08,7.41v4.524h-.048a2.771,2.771,0,0,0-.717.1,4.991,4.991,0,0,1-2.276-3.082q.158-.079.315-.163a.716.716,0,0,0,.318-.943.7.7,0,0,0-.954-.3,11.436,11.436,0,0,1-9.133.779A14.37,14.37,0,0,1,14.492,6.3a.7.7,0,0,0-.856,1.1,15.466,15.466,0,0,0,4.484,2.236,13.987,13.987,0,0,0,4.213.668,12.574,12.574,0,0,0,4.418-.8,6.178,6.178,0,0,0,3.015,3.8,1.368,1.368,0,0,0,.538.111h0a1.551,1.551,0,0,0,.391-.051,1.372,1.372,0,0,1,.337-.044,1.54,1.54,0,1,1,0,3.079,1.513,1.513,0,0,1-.507-.095.7.7,0,0,0-.937.656v.883A9.008,9.008,0,0,1,20.5,26.85Zm0,0"/>
      <path id="Trazado_825924" data-name="Trazado 825924" d="M111.376,427.093h-1.913v-1.54a.7.7,0,1,0-1.4,0v1.54h-1.912a1.445,1.445,0,0,0-1.444,1.444v2.984a1.445,1.445,0,0,0,1.444,1.444h5.221a1.445,1.445,0,0,0,1.444-1.444v-2.984A1.445,1.445,0,0,0,111.376,427.093Zm.048,4.427a.048.048,0,0,1-.048.048h-5.221a.048.048,0,0,1-.048-.048v-2.983a.048.048,0,0,1,.048-.048h5.221a.048.048,0,0,1,.048.048Zm0,0" transform="translate(-94.515 -385.326)"/>
    </g>
  </g>
</svg>
