<svg xmlns="http://www.w3.org/2000/svg" width="67" height="67" viewBox="0 0 67 67">
  <g id="Grupo_1074146" data-name="Grupo 1074146" transform="translate(-633 -11164)">
    <g id="Grupo_1073043" data-name="Grupo 1073043" transform="translate(415 8220)">
      <circle id="Elipse_9669" data-name="Elipse 9669" cx="33.5" cy="33.5" r="33.5" transform="translate(218 2944)" fill="#ffce00"/>
    </g>
    <g id="_FILLED_OUTLINE" data-name="/ FILLED_OUTLINE" transform="translate(626 11157.988)">
      <circle id="Elipse_9828" data-name="Elipse 9828" cx="7.295" cy="7.295" r="7.295" transform="translate(33.022 16.821)" fill="#ed8f4f"/>
      <path id="Trazado_825925" data-name="Trazado 825925" d="M79.8,155.972l-2.938-1.306-2.938,1.306A3.242,3.242,0,0,0,72,158.935V169.8h9.727V158.935a3.242,3.242,0,0,0-1.926-2.963Z" transform="translate(-50.326 -124.606)" fill="#05a056"/>
      <path id="Trazado_825926" data-name="Trazado 825926" d="M52.864,195.283v-.851a2.432,2.432,0,1,0-4.864,0v.851a2.432,2.432,0,0,0,1.444,2.222l.988.439.988-.439a2.432,2.432,0,0,0,1.444-2.222Z" transform="translate(-28.758 -158.157)" fill="#fcdcc8"/>
      <path id="Trazado_825927" data-name="Trazado 825927" d="M31.8,251.972l-2.938-1.306-2.938,1.306A3.242,3.242,0,0,0,24,254.935v6.809h9.727v-6.809a3.242,3.242,0,0,0-1.925-2.963Z" transform="translate(-7.189 -210.879)" fill="#0cbf6a"/>
      <path id="Trazado_825928" data-name="Trazado 825928" d="M100.864,99.283v-.851a2.432,2.432,0,1,0-4.864,0v.851a2.432,2.432,0,0,0,1.444,2.222l.988.439.988-.439A2.432,2.432,0,0,0,100.864,99.283Z" transform="translate(-71.894 -71.884)" fill="#fcdcc8"/>
      <path id="Trazado_825929" data-name="Trazado 825929" d="M148.864,195.283v-.851a2.432,2.432,0,1,0-4.864,0v.851a2.432,2.432,0,0,0,1.444,2.222l.988.439.988-.439A2.432,2.432,0,0,0,148.864,195.283Z" transform="translate(-115.031 -158.157)" fill="#fcdcc8"/>
      <path id="Trazado_825930" data-name="Trazado 825930" d="M127.8,251.972l-2.938-1.306-2.938,1.306A3.242,3.242,0,0,0,120,254.935v6.809h9.727v-6.809A3.242,3.242,0,0,0,127.8,251.972Z" transform="translate(-93.462 -210.879)" fill="#04b263"/>
      <path id="Trazado_825931" data-name="Trazado 825931" d="M184,288v14.591h3.242a7.3,7.3,0,0,0,7.3-7.3h0a7.3,7.3,0,0,0-7.3-7.3Z" transform="translate(-150.978 -244.429)" fill="#ed8f4f"/>
      <circle id="Elipse_9829" data-name="Elipse 9829" cx="7.295" cy="7.295" r="7.295" transform="translate(25.727 43.571)" fill="#f7a46b"/>
      <path id="Trazado_825932" data-name="Trazado 825932" d="M212.864,124.159l4.864-4.864H215.3V112h-4.864v7.3H208Z" transform="translate(-172.546 -86.263)" fill="#ffc542"/>
      <path id="Trazado_825933" data-name="Trazado 825933" d="M352,136h13.78l-.811,2.432.014.064a33.336,33.336,0,0,1,0,14.463l-.014.064.811,2.432H352l.811-2.432-.014-.064a33.336,33.336,0,0,1,0-14.463l.014-.064Z" transform="translate(-301.955 -107.831)" fill="#ffd168"/>
      <circle id="Elipse_9830" data-name="Elipse 9830" cx="1.621" cy="1.621" r="1.621" transform="translate(54.908 33.033)" fill="#e5b13b"/>
      <rect id="Rectángulo_383230" data-name="Rectángulo 383230" width="4.864" height="1.621" transform="translate(54.098 38.707)" fill="#e5b13b"/>
      <rect id="Rectángulo_383231" data-name="Rectángulo 383231" width="6.485" height="1.621" transform="translate(53.287 41.949)" fill="#e5b13b"/>
      <path id="Trazado_825934" data-name="Trazado 825934" d="M95.267,348.053a1.621,1.621,0,0,1-.859-.246l-5.7-3.56a1.621,1.621,0,0,0-.859-.246H78.59v.811a3.242,3.242,0,0,0,3.242,3.242H86.7l-5.81,4.519a3.242,3.242,0,0,1-3.225.439l-10.408-4.286a1.9,1.9,0,0,0-2.421.907L64,351.3l10.982,5.78a13.078,13.078,0,0,0,9.263,1.115l8.125-2.031h10.538v-8.106Z" transform="translate(-43.136 -294.755)" fill="#fcdcc8"/>
      <path id="Trazado_825935" data-name="Trazado 825935" d="M343.212,39.4a22.723,22.723,0,0,0-9.971-7.224l.559-1.522a24.345,24.345,0,0,1,10.682,7.739Z" transform="translate(-285.097 -13.157)" fill="#ffe7b1"/>
      <path id="Trazado_825936" data-name="Trazado 825936" d="M110.783,35.484l-.989-1.285a24.25,24.25,0,0,1,6.429-3.547l.559,1.522A22.624,22.624,0,0,0,110.783,35.484Z" transform="translate(-84.291 -13.157)" fill="#ffe7b1"/>
      <rect id="Rectángulo_383232" data-name="Rectángulo 383232" width="2.431" height="1.621" rx="0.811" transform="translate(42.75 52.487)" fill="#efc8b4"/>
      <path id="Trazado_825937" data-name="Trazado 825937" d="M180.856,31.547v.676h-1.621a.811.811,0,0,0-.573,1.384l4.864,4.864a.811.811,0,0,0,1.146,0l4.864-4.864a.811.811,0,0,0-.573-1.384h-1.621v-.676a8.106,8.106,0,1,0-6.485,0Zm3.242,5.2-2.907-2.907h.475a.811.811,0,0,0,.811-.811V26.548h3.242v6.485a.811.811,0,0,0,.811.811h.475Zm0-19.118a6.485,6.485,0,0,1,3.242,12.1v-4a.811.811,0,0,0-.811-.811h-4.864a.811.811,0,0,0-.811.811v4a6.485,6.485,0,0,1,3.242-12.1Z" transform="translate(-143.781)"/>
      <path id="Trazado_825938" data-name="Trazado 825938" d="M358.619,145.789a34.38,34.38,0,0,0,0-14.5l.74-2.22A.811.811,0,0,0,358.59,128H344.81a.811.811,0,0,0-.769,1.067l.74,2.22a34.379,34.379,0,0,0,0,14.5l-.74,2.22a.811.811,0,0,0,.769,1.067h13.78a.811.811,0,0,0,.769-1.067Zm-1.609.3.455,1.365H345.935l.455-1.365a.811.811,0,0,0,.022-.432l-.014-.064a32.739,32.739,0,0,1,0-14.112l.014-.064a.811.811,0,0,0-.022-.432l-.455-1.365h11.531l-.455,1.365a.811.811,0,0,0-.022.432l.014.064a32.738,32.738,0,0,1,0,14.112l-.014.064A.811.811,0,0,0,357.011,146.089Z" transform="translate(-294.765 -100.641)"/>
      <path id="Trazado_825939" data-name="Trazado 825939" d="M394.432,180.864A2.432,2.432,0,1,0,392,178.432a2.432,2.432,0,0,0,2.432,2.432Zm0-3.242a.811.811,0,1,1-.811.811A.811.811,0,0,1,394.432,177.621Z" transform="translate(-337.902 -143.778)"/>
      <rect id="Rectángulo_383233" data-name="Rectángulo 383233" width="4.864" height="1.621" transform="translate(54.098 38.707)"/>
      <rect id="Rectángulo_383234" data-name="Rectángulo 383234" width="6.485" height="1.621" transform="translate(53.287 41.949)"/>
      <path id="Trazado_825940" data-name="Trazado 825940" d="M51.7,117.058,46,113.5a2.429,2.429,0,0,0-1.289-.37H44a8.1,8.1,0,0,0-7.128-5.65,4.031,4.031,0,0,0-2.2-2.431l-1.36-.6a3.246,3.246,0,0,0,1.335-2.622v-.851a3.247,3.247,0,0,0-2.628-3.183A4.055,4.055,0,0,0,29.8,95.32l-1.36-.6a3.246,3.246,0,0,0,1.335-2.622v-.851a3.242,3.242,0,1,0-6.485,0v.851a3.246,3.246,0,0,0,1.335,2.622l-1.36.6a4.055,4.055,0,0,0-2.211,2.466,3.247,3.247,0,0,0-2.628,3.183v.851a3.246,3.246,0,0,0,1.335,2.622l-1.36.6a4.057,4.057,0,0,0-2.407,3.7v6.809h1.621v-6.809a2.434,2.434,0,0,1,1.444-2.222l2.609-1.159,2.609,1.159a2.434,2.434,0,0,1,1.444,2.222v3.278a8.118,8.118,0,0,0-.332,6.286l-.971-.4a2.72,2.72,0,0,0-3.455,1.294l-.831,1.664a.81.81,0,0,0,.348,1.08l10.982,5.78a13.872,13.872,0,0,0,9.837,1.184l8.028-2.007H59.772v-1.621H49.234a.808.808,0,0,0-.2.024l-8.125,2.031a12.254,12.254,0,0,1-8.689-1.046l-10.28-5.41.477-.954a1.092,1.092,0,0,1,1.387-.52L34.216,123.7a4.061,4.061,0,0,0,4.031-.549l5.591-4.348h1.343v-1.621H38.7a2.435,2.435,0,0,1-2.432-2.432h8.452a.81.81,0,0,1,.43.123l5.7,3.56a2.43,2.43,0,0,0,1.289.37h7.641v-1.621H52.131A.809.809,0,0,1,51.7,117.058Zm-9.425-3.93H40.755a8.09,8.09,0,0,0-2.49-3.74,6.438,6.438,0,0,1,2.073,1.126A6.528,6.528,0,0,1,42.276,113.128Zm-8.266-6.6a2.424,2.424,0,0,1,1.07.926H33.022a8.078,8.078,0,0,0-5.674,2.324v-1.027a2.434,2.434,0,0,1,1.444-2.222l2.609-1.159Zm-.988-5.559v.851a1.623,1.623,0,0,1-.963,1.481l-.658.293-.658-.293a1.623,1.623,0,0,1-.963-1.481v-.851a1.621,1.621,0,0,1,3.242,0Zm-8.106-9.727a1.621,1.621,0,1,1,3.242,0v.851a1.623,1.623,0,0,1-.963,1.481l-.658.293-.658-.293a1.623,1.623,0,0,1-.963-1.481ZM23.3,101.821a1.623,1.623,0,0,1-.963,1.481l-.658.293-.658-.293a1.623,1.623,0,0,1-.963-1.481v-.851a1.621,1.621,0,0,1,3.242,0Zm1.646,3.226-1.36-.6a3.246,3.246,0,0,0,1.335-2.622v-.851a3.248,3.248,0,0,0-2.161-3.056A2.431,2.431,0,0,1,23.929,96.8l2.609-1.159L29.147,96.8a2.431,2.431,0,0,1,1.174,1.112,3.248,3.248,0,0,0-2.161,3.056v.851a3.246,3.246,0,0,0,1.335,2.622l-1.36.6a4.047,4.047,0,0,0-1.6,1.274A4.047,4.047,0,0,0,24.941,105.047ZM38.7,118.8h2.5l-3.945,3.069a2.437,2.437,0,0,1-2.419.329L27.7,119.262a6.485,6.485,0,1,1,11.338-6.133H35.454a.811.811,0,0,0-.811.811v.811A4.058,4.058,0,0,0,38.7,118.8Z" transform="translate(0 -64.694)"/>
      <path id="Trazado_825941" data-name="Trazado 825941" d="M343.212,39.4l1.27-1.007A24.345,24.345,0,0,0,333.8,30.652l-.559,1.522A22.724,22.724,0,0,1,343.212,39.4Z" transform="translate(-285.097 -13.157)"/>
      <path id="Trazado_825942" data-name="Trazado 825942" d="M116.783,32.174l-.559-1.522a24.25,24.25,0,0,0-6.429,3.547l.989,1.285a22.623,22.623,0,0,1,6-3.31Z" transform="translate(-84.291 -13.157)"/>
    </g>
  </g>
</svg>
