<svg xmlns="http://www.w3.org/2000/svg" width="67" height="67" viewBox="0 0 67 67">
  <g id="Grupo_1074149" data-name="Grupo 1074149" transform="translate(-1053 -11164)">
    <g id="Grupo_1073043" data-name="Grupo 1073043" transform="translate(835 8220)">
      <circle id="Elipse_9669" data-name="Elipse 9669" cx="33.5" cy="33.5" r="33.5" transform="translate(218 2944)" fill="#ffce00"/>
    </g>
    <g id="grupo-de-edad" transform="translate(1063 11152.828)">
      <g id="Grupo_1074147" data-name="Grupo 1074147" transform="translate(0.687 24.859)">
        <path id="Trazado_825943" data-name="Trazado 825943" d="M20.525,250.133a5.494,5.494,0,0,0-5.494-5.495H12.994A5.494,5.494,0,0,0,7.5,250.133v4.391a1.831,1.831,0,0,0,1.831,1.831h.235v9.98h8.242v-9.98h.886a1.831,1.831,0,0,0,1.831-1.832Z" transform="translate(-7.5 -225.136)" fill="#f96491"/>
        <path id="Trazado_825944" data-name="Trazado 825944" d="M71.567,244.637H69.736a5.5,5.5,0,0,1,5.494,5.494v4.391H72.513v11.811h1.832v-9.98h.886a1.831,1.831,0,0,0,1.831-1.832v-4.391A5.5,5.5,0,0,0,71.567,244.637Z" transform="translate(-64.037 -225.135)" fill="#f93a79"/>
        <circle id="Elipse_9831" data-name="Elipse 9831" cx="4.671" cy="4.671" r="4.671" transform="translate(1.831 10.073)" fill="#f96491"/>
        <path id="Trazado_825945" data-name="Trazado 825945" d="M69.416,141.673a4.692,4.692,0,0,0-.916.09,4.671,4.671,0,0,1,0,9.162,4.671,4.671,0,1,0,.916-9.252Z" transform="translate(-62.914 -131.6)" fill="#f93a79"/>
        <path id="Trazado_825946" data-name="Trazado 825946" d="M198.262,200.132a5.494,5.494,0,0,0-5.494-5.494h-2.036a5.494,5.494,0,0,0-5.494,5.494V207a1.831,1.831,0,0,0,1.831,1.831h.436v12.086h8.242V208.828h.684A1.831,1.831,0,0,0,198.262,207Z" transform="translate(-168.961 -179.715)" fill="#fff08a"/>
        <path id="Trazado_825947" data-name="Trazado 825947" d="M249.3,194.637h-1.831a5.5,5.5,0,0,1,5.494,5.494V207h-2.516v13.917h1.831V208.827h.684A1.831,1.831,0,0,0,254.8,207v-6.864A5.494,5.494,0,0,0,249.3,194.637Z" transform="translate(-225.498 -179.714)" fill="#ffc472"/>
        <circle id="Elipse_9832" data-name="Elipse 9832" cx="4.671" cy="4.671" r="4.671" transform="translate(18.107 5.494)" fill="#fff08a"/>
        <path id="Trazado_825948" data-name="Trazado 825948" d="M247.152,91.673a4.692,4.692,0,0,0-.916.09,4.671,4.671,0,0,1,0,9.162,4.671,4.671,0,1,0,.916-9.252Z" transform="translate(-224.374 -86.179)" fill="#ffc472"/>
        <path id="Trazado_825949" data-name="Trazado 825949" d="M376.531,140.132a5.494,5.494,0,0,0-5.494-5.494H369a5.5,5.5,0,0,0-5.495,5.494v9.794a1.831,1.831,0,0,0,1.832,1.831h.589v14.65h8.242v-14.65h.532a1.831,1.831,0,0,0,1.832-1.831v-9.794Z" transform="translate(-330.905 -125.209)" fill="#8ae897"/>
        <path id="Trazado_825950" data-name="Trazado 825950" d="M427.573,134.637h-1.831a5.494,5.494,0,0,1,5.494,5.494v9.794h-2.363v16.481H430.7v-14.65h.532a1.831,1.831,0,0,0,1.831-1.831v-9.794A5.494,5.494,0,0,0,427.573,134.637Z" transform="translate(-387.442 -125.208)" fill="#69bdc6"/>
        <circle id="Elipse_9833" data-name="Elipse 9833" cx="4.671" cy="4.671" r="4.671" transform="translate(34.432 0)" fill="#8ae897"/>
        <path id="Trazado_825951" data-name="Trazado 825951" d="M425.421,31.673a4.692,4.692,0,0,0-.916.09,4.671,4.671,0,0,1,0,9.162,4.671,4.671,0,1,0,.916-9.252Z" transform="translate(-386.318 -31.673)" fill="#69bdc6"/>
      </g>
      <g id="Grupo_1074148" data-name="Grupo 1074148" transform="translate(0 24.172)">
        <path id="Trazado_825952" data-name="Trazado 825952" d="M366.234,33.939a5.357,5.357,0,0,0,1.741-6.829l-1.225.621a3.94,3.94,0,0,1,.428,1.8,3.984,3.984,0,1,1-1.138-2.788l.981-.961a5.357,5.357,0,1,0-6.86,8.163,6.191,6.191,0,0,0-4.156,5.839v9.794a2.521,2.521,0,0,0,2.421,2.516V66.745h9.615V52.09a2.522,2.522,0,0,0,2.363-2.514V39.782a6.191,6.191,0,0,0-4.171-5.844Zm2.8,15.638a1.146,1.146,0,0,1-1.145,1.145h-1.218v14.65h-2.776V53.186h-1.374V65.371H359.8V50.721h-1.276a1.146,1.146,0,0,1-1.145-1.145V39.782a4.813,4.813,0,0,1,4.808-4.808h2.036a4.813,4.813,0,0,1,4.808,4.808v9.794Z" transform="translate(-323.405 -24.172)"/>
        <path id="Trazado_825953" data-name="Trazado 825953" d="M187.965,93.94a5.358,5.358,0,1,0-6.073.005,6.191,6.191,0,0,0-4.156,5.839v6.864A2.522,2.522,0,0,0,180,109.153v12.1h9.615V109.165a2.521,2.521,0,0,0,2.516-2.518v-3.941h-1.374v3.941a1.146,1.146,0,0,1-1.145,1.145h-1.371v12.086h-2.753V110.44H184.12v9.438h-2.742V107.792h-1.123a1.146,1.146,0,0,1-1.145-1.145V99.783a4.813,4.813,0,0,1,4.808-4.808h2.036a4.813,4.813,0,0,1,4.808,4.808v1.555h1.374V99.783a6.19,6.19,0,0,0-4.17-5.844Zm-7.024-4.409a3.984,3.984,0,1,1,3.984,3.984A3.989,3.989,0,0,1,180.941,89.531Z" transform="translate(-161.461 -78.678)"/>
        <path id="Trazado_825954" data-name="Trazado 825954" d="M10.228,143.94a5.358,5.358,0,1,0-6.073,0,6.2,6.2,0,0,0-3.368,2.818l1.2.672a4.818,4.818,0,0,1,4.2-2.459H8.218a4.813,4.813,0,0,1,4.808,4.808v4.391a1.146,1.146,0,0,1-1.145,1.145H10.308v9.98H7.561v-7.55H6.187v7.55H3.44v-9.98H2.518a1.146,1.146,0,0,1-1.145-1.145v-4.391a4.824,4.824,0,0,1,.161-1.24L.208,148.19A6.2,6.2,0,0,0,0,149.783v4.391a2.523,2.523,0,0,0,2.066,2.478v10.02h9.615v-9.98h.2a2.521,2.521,0,0,0,2.518-2.518v-4.391a6.191,6.191,0,0,0-4.17-5.844ZM3.2,139.531a3.984,3.984,0,1,1,3.984,3.984A3.989,3.989,0,0,1,3.2,139.531Z" transform="translate(0 -124.1)"/>
        <path id="Trazado_825955" data-name="Trazado 825955" d="M67.562,316.559h1.374v1.379H67.562Z" transform="translate(-61.375 -289.784)"/>
        <path id="Trazado_825956" data-name="Trazado 825956" d="M67.562,286.621h1.374v1.374H67.562Z" transform="translate(-61.375 -262.587)"/>
        <path id="Trazado_825957" data-name="Trazado 825957" d="M247.5,241.621h1.374v1.374H247.5Z" transform="translate(-224.835 -221.708)"/>
        <path id="Trazado_825958" data-name="Trazado 825958" d="M247.5,271.621h1.374v1.374H247.5Z" transform="translate(-224.835 -248.961)"/>
        <path id="Trazado_825959" data-name="Trazado 825959" d="M428.379,188.546h-1.374v-1.368h1.374Zm0-2.741h-1.374v-1.374h1.374Zm0-2.747h-1.374v-1.374h1.374Z" transform="translate(-387.902 -167.26)" fill="#fff"/>
      </g>
    </g>
  </g>
</svg>
